<?xml version="1.0" encoding="utf-8"?>
<!-- Generator: Adobe Illustrator 25.4.1, SVG Export Plug-In . SVG Version: 6.00 Build 0)  -->
<svg version="1.1" id="Capa_1" xmlns="http://www.w3.org/2000/svg" xmlns:xlink="http://www.w3.org/1999/xlink" x="0px" y="0px"
	 viewBox="0 0 645 977" style="enable-background:new 0 0 645 977;" xml:space="preserve">
<style type="text/css">
	.st0{fill:#70E8FF;}
	.st1{fill:#7CC4D1;}
</style>
<g>
	<path class="st0" d="M494.2,23.8l-0.8-0.5c1-1.6,2.2-3.3,3.3-5l0.8,0.6C496.4,20.5,495.3,22.2,494.2,23.8z"/>
	<path class="st0" d="M451.8,948.4c-3.9-1-7.8-2-11.6-3l0.2-1c3.9,1,7.7,2,11.6,3L451.8,948.4z M428.6,942.4c-3.9-1-7.7-2-11.6-3
		l0.3-1c3.8,1,7.7,2,11.6,3L428.6,942.4z M405.4,936.3c-3.9-1-7.7-2.1-11.6-3.1l0.3-1c3.9,1.1,7.7,2.1,11.6,3.1L405.4,936.3z
		 M382.2,930c-3.9-1.1-7.7-2.2-11.6-3.3l0.3-1c3.8,1.1,7.7,2.2,11.5,3.3L382.2,930z M359.1,923.4c-3.9-1.1-7.7-2.3-11.5-3.4l0.3-1
		c3.8,1.1,7.7,2.3,11.5,3.4L359.1,923.4z M336.1,916.4c-3.8-1.2-7.7-2.4-11.5-3.6l0.3-1c3.8,1.2,7.6,2.4,11.4,3.6L336.1,916.4z
		 M313.3,909.1c-3.8-1.3-7.6-2.5-11.4-3.8l0.3-0.9c3.8,1.3,7.6,2.5,11.4,3.8L313.3,909.1z M290.5,901.4c-3.8-1.3-7.6-2.7-11.3-4
		l0.3-0.9c3.7,1.4,7.5,2.7,11.3,4L290.5,901.4z M267.9,893.2c-3.8-1.4-7.6-2.9-11.2-4.3l0.4-0.9c3.6,1.4,7.4,2.9,11.2,4.3
		L267.9,893.2z M245.6,884.4c-3.7-1.5-7.4-3.1-11.1-4.6l0.4-0.9c3.6,1.5,7.4,3.1,11.1,4.6L245.6,884.4z M223.5,875
		c-3.7-1.6-7.4-3.3-10.9-5l0.4-0.9c3.6,1.7,7.2,3.3,10.9,5L223.5,875z M201.7,864.8c-3.6-1.8-7.2-3.6-10.7-5.4l0.5-0.9
		c3.5,1.8,7.1,3.6,10.7,5.4L201.7,864.8z M180.4,853.8c-3.5-1.9-7.1-3.9-10.5-5.9l0.5-0.9c3.4,2,6.9,3.9,10.5,5.9L180.4,853.8z
		 M159.6,841.8c-3.4-2.1-6.9-4.3-10.2-6.4l0.5-0.8c3.3,2.1,6.7,4.3,10.1,6.4L159.6,841.8z M139.5,828.6c-3.3-2.3-6.6-4.7-9.8-7
		l0.6-0.8c3.2,2.4,6.4,4.7,9.7,7L139.5,828.6z M120.2,814.3c-3.2-2.5-6.3-5.1-9.2-7.7l0.7-0.8c3,2.6,6.1,5.1,9.2,7.7L120.2,814.3z
		 M102,798.6c-2.9-2.8-5.8-5.6-8.6-8.4l0.7-0.7c2.7,2.8,5.6,5.6,8.6,8.4L102,798.6z M85.2,781.4c-2.7-3-5.3-6.1-7.8-9.1l0.8-0.6
		c2.5,3.1,5.1,6.1,7.8,9.1L85.2,781.4z M70.1,762.8c-2.4-3.2-4.7-6.6-6.8-9.9l0.8-0.5c2.2,3.3,4.4,6.6,6.8,9.8L70.1,762.8z
		 M57,742.7c-2-3.5-3.9-7-5.7-10.6l0.9-0.4c1.8,3.5,3.7,7.1,5.7,10.5L57,742.7z M46.2,721.2c-1.6-3.7-3.1-7.4-4.5-11.1l0.9-0.3
		c1.4,3.7,2.9,7.5,4.4,11.1L46.2,721.2z M37.9,698.7c-1.2-3.8-2.2-7.7-3.2-11.6l1-0.2c0.9,3.9,2,7.7,3.2,11.5L37.9,698.7z
		 M32.3,675.3c-0.7-3.9-1.4-7.9-1.9-11.9l1-0.1c0.5,4,1.2,7.9,1.9,11.8L32.3,675.3z M29.1,651.5c-0.3-3.9-0.6-8-0.7-12h1
		c0.1,4,0.4,8,0.7,11.9L29.1,651.5z M29.2,627.6h-1c0-4,0.2-8.1,0.3-12h1C29.4,619.5,29.3,623.5,29.2,627.6z M30.4,603.6l-1-0.1
		c0.4-4,0.8-8,1.3-11.9l1,0.1C31.2,595.6,30.8,599.6,30.4,603.6z M33.6,580l-1-0.2c0.7-4,1.6-7.9,2.5-11.7l1,0.2
		C35.1,572.1,34.3,576,33.6,580z M39.1,556.7l-1-0.3c1.1-3.8,2.4-7.7,3.7-11.4l0.9,0.3C41.5,549.1,40.2,552.9,39.1,556.7z
		 M47.1,534.3l-0.9-0.4c1.6-3.7,3.2-7.3,5-10.9l0.9,0.4C50.3,527,48.7,530.6,47.1,534.3z M57.7,513l-0.9-0.5c2-3.4,4.1-6.9,6.3-10.2
		l0.8,0.6C61.8,506.1,59.7,509.5,57.7,513z M71,493.1l-0.8-0.6c2.4-3.2,4.9-6.3,7.5-9.3l0.8,0.7C75.9,486.9,73.3,490,71,493.1z
		 M86.5,475l-0.7-0.7c2.7-2.8,5.6-5.6,8.6-8.4l0.7,0.7C92.1,469.4,89.2,472.2,86.5,475z M104,458.9l-0.6-0.8c3.1-2.5,6.2-5,9.5-7.4
		l0.6,0.8C110.3,453.9,107.1,456.4,104,458.9z M123.3,444.6l-0.6-0.8c3.3-2.2,6.7-4.4,10.1-6.5l0.5,0.9
		C129.9,440.3,126.5,442.4,123.3,444.6z M143.7,432.2l-0.5-0.9c3.4-1.9,7-3.8,10.6-5.6l0.4,0.9C150.7,428.4,147.1,430.3,143.7,432.2
		z M165.1,421.4l-0.4-0.9c3.6-1.6,7.3-3.3,11-4.8l0.4,0.9C172.3,418.1,168.6,419.8,165.1,421.4z M187.2,412.1l-0.4-0.9
		c3.7-1.4,7.5-2.8,11.3-4.2l0.3,0.9C194.6,409.3,190.8,410.7,187.2,412.1z M209.7,404l-0.3-1c3.7-1.2,7.6-2.4,11.5-3.6l0.3,1
		C217.3,401.6,213.5,402.8,209.7,404z M232.7,397l-0.3-1c3.8-1.1,7.7-2.1,11.6-3.1l0.3,1C240.4,394.9,236.5,396,232.7,397z
		 M255.9,391l-0.2-1c3.8-0.9,7.7-1.9,11.7-2.7l0.2,1C263.7,389.1,259.7,390,255.9,391z M279.3,385.7l-0.2-1
		c3.8-0.8,7.8-1.6,11.8-2.4l0.2,1C287.1,384,283.2,384.8,279.3,385.7z M302.9,381l-0.2-1c4-0.7,7.9-1.5,11.9-2.2l0.2,1
		C310.8,379.5,306.8,380.2,302.9,381z M326.6,376.8l-0.2-1c4-0.7,7.9-1.3,11.9-1.9l0.2,1C334.5,375.5,330.5,376.1,326.6,376.8z
		 M350.3,373l-0.2-1c4-0.6,7.9-1.2,11.9-1.8l0.1,1C358.2,371.8,354.2,372.4,350.3,373z M374,369.5l-0.1-1c4-0.6,7.9-1.1,11.9-1.7
		l0.1,1C382,368.3,378,368.9,374,369.5z M397.8,366.1l-0.1-1l11.9-1.7l0.1,1L397.8,366.1z M421.6,362.8l-0.1-1c4-0.6,8-1.1,11.9-1.7
		l0.1,1C429.6,361.7,425.6,362.3,421.6,362.8z M445.4,359.4l-0.1-1c4-0.6,8-1.2,11.9-1.8l0.2,1C453.4,358.3,449.4,358.8,445.4,359.4
		z M469.2,355.8l-0.2-1c4-0.6,8-1.3,11.9-2l0.2,1C477.2,354.5,473.2,355.2,469.2,355.8z M492.9,351.7l-0.2-1c4.1-0.8,8-1.5,11.8-2.3
		l0.2,1C500.9,350.2,497,351,492.9,351.7z M516.5,346.9l-0.2-1c4-0.9,8-1.8,11.7-2.8l0.2,1C524.5,345.1,520.5,346,516.5,346.9z
		 M539.8,341l-0.3-1c4-1.1,7.8-2.3,11.5-3.5l0.3,0.9C547.7,338.7,543.8,339.9,539.8,341z M562.6,333.5l-0.4-0.9
		c3.9-1.5,7.6-3.1,11-4.7l0.4,0.9C570.2,330.4,566.5,332,562.6,333.5z M584.4,323.2l-0.5-0.9c3.6-2.1,6.9-4.3,10-6.5l0.6,0.8
		C591.4,318.9,588,321.1,584.4,323.2z M603.5,308.8l-0.7-0.7c2.8-2.9,5.4-5.9,7.5-9.1l0.8,0.6C609,302.8,606.4,305.9,603.5,308.8z
		 M616.7,289.1l-0.9-0.4c1.4-3.6,2.5-7.3,3.2-11.2l1,0.2C619.3,281.7,618.2,285.5,616.7,289.1z M621.4,265.8l-1-0.1
		c0.2-2.8,0.3-5.7,0.3-8.4c0-1.2,0-2.4-0.1-3.5h1c0,1.2,0.1,2.4,0.1,3.6C621.7,260.1,621.6,262.9,621.4,265.8z M619.5,241.9
		c-0.6-4-1.5-7.9-2.6-11.6l1-0.3c1.1,3.8,2,7.7,2.7,11.7L619.5,241.9z M612.6,219.3c-1.7-3.5-3.7-7-5.9-10.3l0.8-0.6
		c2.3,3.3,4.3,6.9,6,10.4L612.6,219.3z M599.4,199.6c-2.5-2.9-5.4-5.7-8.4-8.5l0.7-0.7c3.1,2.8,5.9,5.7,8.5,8.5L599.4,199.6z
		 M581.8,183.5c-3-2.3-6.2-4.6-9.8-6.9l0.6-0.8c3.6,2.4,6.8,4.6,9.8,6.9L581.8,183.5z M561.8,170.2c-3.1-1.8-6.4-3.8-10.4-6l0.5-0.9
		c4,2.3,7.3,4.2,10.4,6L561.8,170.2z M541,158.3c-3.2-1.8-6.9-3.9-10.5-5.9l0.5-0.9c3.6,2,7.3,4.1,10.5,5.9L541,158.3z M520.2,146.3
		c-3.7-2.3-7-4.5-10-6.6l0.6-0.8c3,2.1,6.3,4.3,10,6.6L520.2,146.3z M500.6,132.3c-3.2-2.7-6.1-5.6-8.7-8.4l0.7-0.7
		c2.5,2.8,5.4,5.6,8.6,8.3L500.6,132.3z M484.7,114.3c-2.2-3.4-3.9-7.1-5.3-10.8l0.9-0.3c1.4,3.6,3.1,7.2,5.2,10.6L484.7,114.3z
		 M476.4,91.9c-0.5-3.2-0.7-6.6-0.7-10c0-0.7,0-1.3,0-1.9h1c0,0.6,0,1.3,0,1.9c0,3.4,0.2,6.7,0.7,9.9L476.4,91.9z M477.4,68l-1-0.1
		c0.5-4,1.2-8,2.2-11.9l1,0.2C478.6,60.1,477.9,64,477.4,68z M483.2,44.9l-0.9-0.4c1.4-3.7,3.1-7.2,5-10.9l0.9,0.5
		C486.2,37.8,484.6,41.3,483.2,44.9z"/>
	<path class="st0" d="M470.9,953.2c-1.9-0.5-3.9-1-5.8-1.4l0.2-1c1.9,0.5,3.9,1,5.8,1.4L470.9,953.2z"/>
</g>
<circle class="st1" cx="92.7" cy="469.5" r="6.5"/>
<circle class="st1" cx="487.7" cy="958.5" r="6.5"/>
<circle class="st1" cx="495.7" cy="20.5" r="6.5"/>
</svg>
