<svg id="Capa_1" data-name="Capa 1" xmlns="http://www.w3.org/2000/svg" viewBox="0 0 8.4 14.3"><path d="M9.1,7.3c-.1.1-.2.3-.3.4C7.6,8.5,6.4,9.2,5.2,10a.63.63,0,0,1-.6,0C3.4,9.2,2.2,8.5,1,7.7.7,7.5.7,7.3.9,7,2.1,5,3.3,3.1,4.5,1.2c.3-.4.5-.4.8,0C6.5,3.1,7.7,5,8.9,7,9,7.1,9,7.2,9.1,7.3Z" transform="translate(-0.7 -0.9)" style="fill:#09a2d2"/><path d="M1.1,8.9a1.38,1.38,0,0,1,.4.3c1,.6,2,1.2,2.9,1.8a.75.75,0,0,0,.9,0c1-.6,1.9-1.2,2.9-1.8.2-.1.4,0,.6-.1,0,.2,0,.5-.1.6-1.1,1.7-2.3,3.5-3.4,5.2-.3.4-.5.4-.9,0C3.1,13.2,1.9,11.4.7,9.7c.1-.1.1-.4.1-.5S1,9,1.1,8.9Z" transform="translate(-0.7 -0.9)" style="fill:#09a2d2"/></svg>