<svg id="Capa_1" data-name="Capa 1" xmlns="http://www.w3.org/2000/svg" viewBox="0 0 74 74"><path d="M55.72,25.54a1.69,1.69,0,0,1,1.91,2.23q-2.21,9.78-4.43,19.55c-.4,1.77-.79,3.55-1.21,5.31s-1.72,2.31-3.29,1.25c-2.53-1.7-5.08-3.39-7.57-5.15a1.05,1.05,0,0,0-1.65.15C38.37,50,37.2,51.09,36,52.16s-2.32.77-2.85-.74c-.9-2.59-1.79-5.18-2.62-7.8A2.08,2.08,0,0,0,28.88,42c-2.33-.53-4.64-1.18-6.93-1.89-.52-.17-.91-.77-1.36-1.18.43-.42.78-1.06,1.3-1.25q16.38-6,32.8-11.85C55.08,25.7,55.5,25.6,55.72,25.54Zm-4.43,5.53-.18-.38a2.94,2.94,0,0,0-.79.19L32.21,41.24a1,1,0,0,0-.49,1.45c.72,2.08,1.4,4.18,2.11,6.26a7.75,7.75,0,0,0,.35.78c.41-1.45.53-2.89.81-4.31a3,3,0,0,1,.87-1.62c4.67-3.88,9.39-7.7,14.09-11.55C50.41,31.87,50.84,31.46,51.29,31.07Z" transform="translate(-2.53 -2.98)" style="fill:#32b39b"/><polygon points="51.91 1 22.09 1 1 22.09 1 51.91 22.09 73 51.91 73 73 51.91 73 22.09 51.91 1" style="fill:none;stroke:#32b39b;stroke-miterlimit:10;stroke-width:2px"/></svg>