<svg id="Capa_2" data-name="Capa 2" xmlns="http://www.w3.org/2000/svg" viewBox="0 0 542 148"><title>Sin título-1</title><g style="opacity:0.9"><rect x="35.07" y="10.33" width="471.72" height="127.35" style="fill:#6ca491"/></g><rect x="488.81" y="137.67" width="17.98" height="10.33" style="fill:#0fa"/><rect x="506.79" width="9.68" height="148" style="fill:#0fa"/><rect x="488.81" width="17.98" height="10.33" style="fill:#0fa"/><rect x="35.07" width="17.98" height="10.33" style="fill:#0fa"/><rect x="25.39" width="9.68" height="148" style="fill:#0fa"/><rect x="14.32" width="5.53" height="148" style="fill:#0fa"/><rect x="522.01" width="5.53" height="148" style="fill:#0fa"/><rect x="35.07" y="137.67" width="17.98" height="10.33" style="fill:#0fa"/><polygon points="531.41 144.68 542 131.51 542 15.97 531.83 3.32 531.41 144.68" style="fill:#0fa"/><polygon points="10.59 3.32 0 16.49 0 132.03 10.17 144.68 10.59 3.32" style="fill:#0fa"/><polygon points="437.95 28.34 106.97 28.34 89.16 6.18 61.52 6.18 61.52 4.15 89.83 4.15 107.65 26.32 437.28 26.32 455.89 3.16 477.37 3.16 477.37 5.19 456.56 5.19 437.95 28.34" style="fill:#0fa"/><polygon points="83.01 145.69 61.52 145.69 61.52 143.67 82.33 143.67 100.94 120.52 431.92 120.52 449.74 142.68 477.37 142.68 477.37 144.71 449.06 144.71 431.25 122.54 101.62 122.54 83.01 145.69" style="fill:#0fa"/></svg>