<?xml version="1.0" encoding="utf-8"?>
<!-- Generator: Adobe Illustrator 25.4.1, SVG Export Plug-In . SVG Version: 6.00 Build 0)  -->
<svg version="1.1" id="Capa_1" xmlns="http://www.w3.org/2000/svg" xmlns:xlink="http://www.w3.org/1999/xlink" x="0px" y="0px"
	 viewBox="0 0 363 479" style="enable-background:new 0 0 363 479;" xml:space="preserve">
<style type="text/css">
	.st0{fill:#00A8C1;}
	.st1{fill:none;stroke:#00A8C1;stroke-width:2;stroke-miterlimit:10;}
</style>
<g>
	<image style="overflow:visible;" width="340" height="465" xlink:href="B24CD0F7.png"  transform="matrix(1 0 0 1 14 7)">
	</image>
	<g>
		<path class="st0" d="M202,66l-8.1,5.8c-0.6,0.3-1.2,0.5-1.8,0.5l-12.3,0l-12.3,0c-0.6,0-1.3-0.2-1.8-0.5l-8.1-5.8
			c-19,4-36.7,13.2-51.1,26.8l-0.8,0.7L74.8,62.8c-0.4-0.4-0.4-1.1,0-1.5l0,0c0.4-0.4,1.1-0.4,1.5,0l21.3,21.2
			c2.1,2.1,5.4,2.2,7.6,0.3c10-8.5,21.3-15.2,33.3-19.8v0l0,0l11-11.1c9.7-2.5,19.9-3.8,30.2-3.8c10,0,19.8,1.2,29.3,3.4L220,62.5
			l0,0c12.5,4.6,24.1,11.3,34.5,20.1c2.2,1.9,5.5,1.7,7.6-0.4l20.5-20.5c0.4-0.4,1.1-0.4,1.5,0l0,0c0.4,0.4,0.4,1.1,0,1.5l-30,30.1
			l-0.8-0.7C238.8,79.1,221.1,70,202,66z"/>
		<path class="st0" d="M255.5,65c-11.7-10.1-25.3-17.7-39.8-22.5c-0.2-1.3-0.8-2.6-2-3.6l-14.4-10.4c-0.8-0.4-1.7-0.6-2.5-0.6
			l-16.9,0l-16.9,0c-0.9,0-1.8,0.2-2.5,0.6L146,38.8c-1.1,0.9-1.8,2.1-2,3.3c-14.8,4.7-28.7,12.3-40.7,22.6
			c-0.5,0.4-0.5,1.1-0.1,1.5l0,0c0.4,0.4,1.1,0.5,1.5,0.1c13.4-11.4,29.1-19.6,45.9-23.9c9.2-2,18.9-3,29.1-3
			c9.2,0,18.1,0.9,26.5,2.6c17.6,4.2,34.1,12.6,48,24.6c0.5,0.4,1.1,0.3,1.5-0.1l0,0C256,66.1,256,65.4,255.5,65z"/>
	</g>
	<path class="st1" d="M55,412.8V163.9c0-28.8,9.8-55.3,26.3-76.4"/>
	<path class="st1" d="M275.1,84.9c17.7,21.5,28.4,49,28.4,79v245"/>
	<path class="st0" d="M56.9,237.9l10.7,10.3c0.2,0.2,0.4,0.5,0.4,0.9V306c0,0.3-0.1,0.7-0.4,0.9l-10.7,10c-0.8,0.7-2,0.2-2-0.9
		v-77.2C54.8,237.7,56.1,237.1,56.9,237.9z"/>
	<path class="st0" d="M300.4,316.8l-12.8-10.3c-0.3-0.2-0.4-0.5-0.4-0.9v-56.9c0-0.3,0.2-0.7,0.5-0.9l12.8-10
		c0.9-0.7,2.4-0.2,2.4,0.9v77.2C302.8,317,301.3,317.5,300.4,316.8z"/>
	<g>
		<polygon class="st0" points="71.1,428.7 67,428.7 60.2,438.9 64.3,438.9 		"/>
		<polygon class="st0" points="79.2,428.7 75.2,428.7 68.4,438.9 72.5,438.9 		"/>
		<polygon class="st0" points="87.4,428.7 83.3,428.7 76.5,438.9 80.6,438.9 		"/>
		<polygon class="st0" points="95.5,428.7 91.5,428.7 84.7,438.9 88.8,438.9 		"/>
		<polygon class="st0" points="103.7,428.7 99.6,428.7 92.8,438.9 96.9,438.9 		"/>
		<polygon class="st0" points="111.8,428.7 107.8,428.7 101,438.9 105,438.9 		"/>
		<polygon class="st0" points="120,428.7 115.9,428.7 109.1,438.9 113.2,438.9 		"/>
		<polygon class="st0" points="128.1,428.7 124.1,428.7 117.3,438.9 121.3,438.9 		"/>
		<polygon class="st0" points="136.3,428.7 132.2,428.7 125.4,438.9 129.5,438.9 		"/>
		<polygon class="st0" points="144.4,428.7 140.4,428.7 133.6,438.9 137.6,438.9 		"/>
		<polygon class="st0" points="152.6,428.7 148.5,428.7 141.7,438.9 145.8,438.9 		"/>
		<polygon class="st0" points="160.7,428.7 156.6,428.7 149.9,438.9 153.9,438.9 		"/>
		<polygon class="st0" points="168.9,428.7 164.8,428.7 158,438.9 162.1,438.9 		"/>
		<polygon class="st0" points="177,428.7 172.9,428.7 166.2,438.9 170.2,438.9 		"/>
		<polygon class="st0" points="185.2,428.7 181.1,428.7 174.3,438.9 178.4,438.9 		"/>
		<polygon class="st0" points="193.3,428.7 189.2,428.7 182.4,438.9 186.5,438.9 		"/>
		<polygon class="st0" points="201.5,428.7 197.4,428.7 190.6,438.9 194.7,438.9 		"/>
		<polygon class="st0" points="209.6,428.7 205.5,428.7 198.7,438.9 202.8,438.9 		"/>
		<polygon class="st0" points="217.8,428.7 213.7,428.7 206.9,438.9 211,438.9 		"/>
		<polygon class="st0" points="225.9,428.7 221.8,428.7 215,438.9 219.1,438.9 		"/>
		<polygon class="st0" points="234,428.7 230,428.7 223.2,438.9 227.3,438.9 		"/>
		<polygon class="st0" points="242.2,428.7 238.1,428.7 231.3,438.9 235.4,438.9 		"/>
		<polygon class="st0" points="250.3,428.7 246.3,428.7 239.5,438.9 243.6,438.9 		"/>
		<polygon class="st0" points="258.5,428.7 254.4,428.7 247.6,438.9 251.7,438.9 		"/>
		<polygon class="st0" points="266.6,428.7 262.6,428.7 255.8,438.9 259.8,438.9 		"/>
		<polygon class="st0" points="274.8,428.7 270.7,428.7 263.9,438.9 268,438.9 		"/>
		<polygon class="st0" points="282.9,428.7 278.9,428.7 272.1,438.9 276.1,438.9 		"/>
		<polygon class="st0" points="291.1,428.7 287,428.7 280.2,438.9 284.3,438.9 		"/>
		<polygon class="st0" points="299.2,428.7 295.2,428.7 288.4,438.9 292.4,438.9 		"/>
	</g>
</g>
</svg>
