<svg id="Capa_1" data-name="Capa 1" xmlns="http://www.w3.org/2000/svg" viewBox="0 0 45.08 51.84"><path d="M28.72,44,23.49,25.81,18.25,44a1.81,1.81,0,0,0,.25,1.53l4.73,6.79a.31.31,0,0,0,.51,0l4.73-6.79A1.81,1.81,0,0,0,28.72,44Z" transform="translate(-1.02 -0.61)" style="fill:#28c7a6"/><path d="M46.08,45.21,24.37,1.15a1,1,0,0,0-1.76,0L1.05,45.22a.24.24,0,0,0,.26.34l10.32-1.87a4.89,4.89,0,0,0,3.86-3.52L21.61,18a2,2,0,0,1,3.77,0l6.18,22.12a4.93,4.93,0,0,0,3.85,3.52l10.4,1.9A.25.25,0,0,0,46.08,45.21Z" transform="translate(-1.02 -0.61)" style="fill:#fff"/></svg>