<svg xmlns="http://www.w3.org/2000/svg" viewBox="0 0 29.07 24.33"><g style="isolation:isolate"><g id="Capa_1" data-name="Capa 1"><g style="mix-blend-mode:soft-light"><polygon points="18 2.78 14.51 8.55 11.01 2.78 10.96 2.7 18.05 2.7 18 2.78" style="fill:#fff"/><polygon points="11.01 2.78 10.96 2.7 18.05 2.7 18 2.78 14.51 8.55 11.01 2.78" style="fill:#1d1d1d"/><polygon points="14.51 8.55 11.01 2.78 18 2.78 14.51 8.55" style="fill:#fff"/><path d="M11,2.78h7l.05-.08H11Z" style="fill:#1d1d1d"/><polygon points="10.96 2.7 18.05 2.7 18 2.78 14.51 8.55 11.01 2.78 10.96 2.7" style="fill:#1d1d1d"/><polygon points="10.96 2.7 18.05 2.7 18 2.78 14.51 8.55 11.01 2.78 10.96 2.7" style="fill:#3bb396"/><path d="M15.41,22.9V13.33l4.5-7.42a6.49,6.49,0,0,1,5.55-3.13H27.6L26.31,4.9,25.25,6.66,16,21.93l-.07.12Z" style="fill:#fff"/><path d="M1.42,2.78H3.56A6.5,6.5,0,0,1,9.11,5.91l4.5,7.42V22.9l-.51-.85L13,21.93,3.77,6.66,2.7,4.9Z" style="fill:#fff"/></g><g style="mix-blend-mode:soft-light"><polygon points="18 2.78 14.51 8.55 11.01 2.78 10.96 2.7 18.05 2.7 18 2.78" style="fill:#fff"/><polygon points="11.01 2.78 10.96 2.7 18.05 2.7 18 2.78 14.51 8.55 11.01 2.78" style="fill:#1d1d1d"/><polygon points="14.51 8.55 11.01 2.78 18 2.78 14.51 8.55" style="fill:#fff"/><path d="M11,2.78h7l.05-.08H11Z" style="fill:#1d1d1d"/><polygon points="10.96 2.7 18.05 2.7 18 2.78 14.51 8.55 11.01 2.78 10.96 2.7" style="fill:#1d1d1d"/><polygon points="10.96 2.7 18.05 2.7 18 2.78 14.51 8.55 11.01 2.78 10.96 2.7" style="fill:#3bb396"/><path d="M15.41,22.9V13.33l4.5-7.42a6.49,6.49,0,0,1,5.55-3.13H27.6L26.31,4.9,25.25,6.66,16,21.93l-.07.12Z" style="fill:#fff"/><path d="M1.42,2.78H3.56A6.5,6.5,0,0,1,9.11,5.91l4.5,7.42V22.9l-.51-.85L13,21.93,3.77,6.66,2.7,4.9Z" style="fill:#fff"/></g><polygon points="10.96 2.7 18.05 2.7 18 2.78 14.51 8.55 11.01 2.78 10.96 2.7" style="fill:#3bb396"/></g></g></svg>