<svg id="Capa_1" data-name="Capa 1" xmlns="http://www.w3.org/2000/svg" viewBox="0 0 74 74"><path d="M54.28,28.09c-2.07-2.06-9.18-3-9.18-3V26a15.71,15.71,0,0,1,7.8,3.9c-1.15-.92-6.65-3.44-13.31-3.44S27.38,28.93,26.11,30.1a13.86,13.86,0,0,1,7.86-4v-.91c-2.07.22-6.66.68-9.64,3.67C20,34.18,18.82,48.4,19.05,50a13.09,13.09,0,0,0,10.79,4.82s1.6-2.07,2.29-3.21a10.8,10.8,0,0,1-6-3.9c.14.12,4.61,4,13.19,4s11.7-2.75,13.77-3.9c-1.61,2.52-5.74,3.9-5.74,3.9a17.22,17.22,0,0,1,1.84,3c8,0,10.56-4.36,11-5C59.56,35.44,56.34,30.16,54.28,28.09Zm-21,17.45A3.56,3.56,0,1,1,36.84,42,3.56,3.56,0,0,1,33.28,45.54Zm12.85,0A3.56,3.56,0,1,1,49.69,42,3.57,3.57,0,0,1,46.13,45.54Z" transform="translate(-2.53 -2.98)" style="fill:#32b39b"/><polygon points="51.91 1 22.09 1 1 22.09 1 51.91 22.09 73 51.91 73 73 51.91 73 22.09 51.91 1" style="fill:none;stroke:#32b39b;stroke-miterlimit:10;stroke-width:2px"/></svg>