<svg id="Capa_1" data-name="Capa 1" xmlns="http://www.w3.org/2000/svg" viewBox="0 0 74 74"><path d="M33.53,47.45a6.94,6.94,0,0,1-6.14-4.66H30.1l0-.14a7,7,0,0,1-3.63-2.38,6.67,6.67,0,0,1-1.43-4.06l2.65.72.1-.19A6.66,6.66,0,0,1,25.17,32a6.22,6.22,0,0,1,.88-3.91A18.83,18.83,0,0,0,39.51,35a20.67,20.67,0,0,1,.33-3.26A6.59,6.59,0,0,1,50.6,28.5a.91.91,0,0,0,1.06.27c1-.39,2-.76,3-1.14l.55-.24a6.72,6.72,0,0,1-2.53,3.4l.07.18L56,30.08a9.84,9.84,0,0,1-2.38,2.63,1.86,1.86,0,0,0-.8,1.67A18.83,18.83,0,0,1,24.57,50.61a2.07,2.07,0,0,1-.48-.36A14,14,0,0,0,33.53,47.45Z" transform="translate(-2.53 -2.98)" style="fill:#32b39b"/><polygon points="51.91 1 22.09 1 1 22.09 1 51.91 22.09 73 51.91 73 73 51.91 73 22.09 51.91 1" style="fill:none;stroke:#32b39b;stroke-miterlimit:10;stroke-width:2px"/></svg>