<svg id="Capa_1" data-name="Capa 1" xmlns="http://www.w3.org/2000/svg" xmlns:xlink="http://www.w3.org/1999/xlink" viewBox="0 0 44.1 57.1"><defs><clipPath id="clip-path" transform="translate(-3.7 -3.1)"><rect x="3.7" y="3.1" width="44.1" height="57.1" style="fill:none"/></clipPath></defs><title>isl-flecha_izquierda</title><g style="opacity:0.9599999785423279"><g style="clip-path:url(#clip-path)"><polygon points="43.9 36.2 31.3 28.5 43.9 20.9 44.1 20.8 44.1 36.3 43.9 36.2" style="fill:#fff"/></g><g style="clip-path:url(#clip-path)"><polygon points="43.9 20.9 44.1 20.8 44.1 36.3 43.9 36.2 31.3 28.5 43.9 20.9" style="fill:#222"/></g><g style="clip-path:url(#clip-path)"><polygon points="31.3 28.5 43.9 20.9 43.9 36.2 31.3 28.5" style="fill:#fff"/></g><g style="clip-path:url(#clip-path)"><polygon points="43.9 20.9 43.9 36.2 44.1 36.3 44.1 20.8 43.9 20.9" style="fill:#222"/></g><g style="clip-path:url(#clip-path)"><polygon points="44.1 20.8 44.1 36.3 43.9 36.2 31.3 28.5 43.9 20.9 44.1 20.8" style="fill:#222"/></g><g style="clip-path:url(#clip-path)"><polygon points="44.1 20.8 44.1 36.3 43.9 36.2 31.3 28.5 43.9 20.9 44.1 20.8" style="fill:#6ebe9a"/></g><g style="clip-path:url(#clip-path)"><path d="M3.7,33.6H24.6l16.2,9.8a14.31,14.31,0,0,1,6.8,12.1v4.7L43,57.4l-3.8-2.3L5.8,34.9l-.3-.2Z" transform="translate(-3.7 -3.1)" style="fill:#fff"/></g><g style="clip-path:url(#clip-path)"><path d="M47.6,3.1V7.8a14.18,14.18,0,0,1-6.8,12.1L24.6,29.7H3.7l1.8-1.1.3-.2L39.2,8.2,43,5.9Z" transform="translate(-3.7 -3.1)" style="fill:#fff"/></g></g><polygon points="44.1 20.8 44.1 36.3 43.9 36.2 31.3 28.5 43.9 20.9 44.1 20.8" style="fill:#6ebe9a"/></svg>