<svg id="Capa_1" data-name="Capa 1" xmlns="http://www.w3.org/2000/svg" viewBox="0 0 372.5 213"><path d="M248.89,124.41c-6.18-1.16-12.07-2.27-18-3.43-4.48-.88-8.91-2.1-13.46-2.74-2.45-.29-3.2-1.52-3.79-3.62-3-10.88-14.8-51.87-17-59.8a4.61,4.61,0,0,0-4.6-3.55,4.74,4.74,0,0,0-4.72,3.84c-2.16,7.64-13.06,44.88-15.86,56-1.16,4.66-2.85,7.16-8,7.86-8.63,1.17-17.14,3.33-25.65,5.07a4.25,4.25,0,0,1-2.68,0c8.69-17.49,52.23-103.58,55.14-111.27a3,3,0,0,1,1.69-1.69c1-.18,1.05,1,1.4,1.75,10.43,20.8,51.06,102.11,55.08,110.1A13.06,13.06,0,0,1,248.89,124.41Z" transform="translate(-5.75 -11.03)" style="fill:#fff"/><path d="M203.77,124c-3.55,5.13-7,10.37-10.37,15.62-1.05,1.69-1.63,1.69-2.68,0-3.67-5.66-7.4-11.37-11.25-17-1.05-1.52-.76-2.92-.29-4.43,2.91-10.32,12.3-42.61,12.88-44.13.7,1.81,9,30.55,12.7,43.55A6.71,6.71,0,0,1,203.77,124Z" transform="translate(-5.75 -11.03)" style="fill:#3cb395"/><path d="M231.47,164.06v3.84H247v2.89H231.48v3.83H247v3.32H239.4c-3,0-5.94,0-8.91,0-1.93,0-2.75-.82-2.77-2.7,0-4.42,0-8.28,0-11.81a2.29,2.29,0,0,1,2.52-2.55q3.8,0,7.62,0h9.21v3.21Z" transform="translate(-5.75 -11.03)" style="fill:#fff"/><polygon points="197.25 149.93 197.25 166.79 193.82 166.79 193.82 159.96 179.63 159.96 179.63 166.75 176.1 166.75 176.1 149.97 179.57 149.97 179.57 156.77 193.69 156.77 193.69 149.93 197.25 149.93" style="fill:#fff"/><polygon points="151.41 149.97 151.41 152.97 142.82 152.97 142.82 166.78 139.2 166.78 139.2 153.13 130.54 153.13 130.54 149.97 151.41 149.97" style="fill:#fff"/><path d="M54.7,196.44a7.34,7.34,0,0,0-7.09,5.43l-1.08,4c-.43,1.58-.81,3-1.13,4.25s-.6,2.41-.81,3.52l-.39,1.92-1.53-3.26-.82-1.66c-.31-.6-.66-1.27-1.06-2s-.86-1.62-1.4-2.61l-3.78-7.18a7.73,7.73,0,0,0-1-1.54,4.21,4.21,0,0,0-1-.82,3.15,3.15,0,0,0-1.09-.38,9.6,9.6,0,0,0-2.73,0,3,3,0,0,0-1.08.38,3.72,3.72,0,0,0-1,.82,7.89,7.89,0,0,0-1,1.54L22.82,206c-1,1.83-1.78,3.35-2.39,4.54s-1.13,2.29-1.57,3.27L18,215.6l-.38-2c-.24-1.14-.49-2.33-.79-3.54s-.67-2.61-1.12-4.22l-1.08-4a7.34,7.34,0,0,0-7.09-5.43H5.75l7,24.15a4.74,4.74,0,0,0,1.69,2.61A4.38,4.38,0,0,0,17,224a4.3,4.3,0,0,0,2.54-.7,6.09,6.09,0,0,0,1.75-2l4.54-8.07,1.6-2.88,1.21-2.22c.35-.66.66-1.26.93-1.79s.5-1,.73-1.55l.56-1.24,1.38,2.79c.28.53.58,1.12.94,1.77s.79,1.43,1.24,2.27,1,1.78,1.61,2.89l4.54,8a6.29,6.29,0,0,0,1.79,2,4.32,4.32,0,0,0,2.49.68,4.46,4.46,0,0,0,2.63-.82,4.84,4.84,0,0,0,1.68-2.61l7.1-24.15Z" transform="translate(-5.75 -11.03)" style="fill:#fff"/><path d="M129.93,201.7v12.24l-18.47-16.6a5,5,0,0,0-1.68-1.11,4.66,4.66,0,0,0-3,0,3.36,3.36,0,0,0-1.29.79,4,4,0,0,0-.91,1.42,6.12,6.12,0,0,0-.36,2.19v22.91h1.45a5.25,5.25,0,0,0,5.25-5.26V206.08l18.48,16.58a4.47,4.47,0,0,0,1.62,1.13,4.91,4.91,0,0,0,3.1,0,3.16,3.16,0,0,0,1.28-.8,4,4,0,0,0,.93-1.47,6,6,0,0,0,.36-2.17V196.44h-1.48A5.26,5.26,0,0,0,129.93,201.7Z" transform="translate(-5.75 -11.03)" style="fill:#fff"/><path d="M176.77,204.39a12.84,12.84,0,0,0-3.39-4.2,16.27,16.27,0,0,0-5.19-2.76,21.87,21.87,0,0,0-6.68-1h-13.1l-4.63,6.11h17.73a10.81,10.81,0,0,1,3.51.57,9.61,9.61,0,0,1,2.87,1.54,7,7,0,0,1,2,2.41,6.93,6.93,0,0,1,0,6.11,7.09,7.09,0,0,1-1.9,2.35,8.61,8.61,0,0,1-2.87,1.5,12,12,0,0,1-3.56.52H150.68v-4h-1.27a6.28,6.28,0,0,0-6.28,6.28v3.7h18.38a19.79,19.79,0,0,0,6.61-1.07,15.88,15.88,0,0,0,5.21-2.92,13.41,13.41,0,0,0,3.41-4.37,12.43,12.43,0,0,0,1.23-5.47A12,12,0,0,0,176.77,204.39Z" transform="translate(-5.75 -11.03)" style="fill:#fff"/><path d="M191.25,217.55V212.4H209l4.05-5.16H191.25v-4.69h13.33a10.93,10.93,0,0,0,8.67-4.26l1.41-1.85H183.71v27.12h21a11,11,0,0,0,8.65-4.24l1.36-1.77Z" transform="translate(-5.75 -11.03)" style="fill:#fff"/><path d="M253.66,219.14c-1-1-1.76-1.75-2.35-2.32a20.32,20.32,0,0,0-1.56-1.36l-1.13-.87,1.39-.27a8.8,8.8,0,0,0,2.92-1.09,8,8,0,0,0,2.16-1.86,8.49,8.49,0,0,0,1.37-2.49,9.37,9.37,0,0,0,.46-2.93,7.92,7.92,0,0,0-1.26-4.63,9.37,9.37,0,0,0-3.28-2.91,14.53,14.53,0,0,0-4.52-1.53,30,30,0,0,0-4.9-.44H225l-4.73,6.11h23.38a7.21,7.21,0,0,1,3.93.93,3.4,3.4,0,0,1,1.57,3,3.25,3.25,0,0,1-1.72,2.88,7.08,7.08,0,0,1-3.78,1H219.63v13.22h7.5v-7.51h14.44l3.16,3.76a10.52,10.52,0,0,0,8.06,3.75h5.07Z" transform="translate(-5.75 -11.03)" style="fill:#fff"/><path d="M270.68,217.55V212.4h17.78l4-5.16H270.68v-4.69H284a10.93,10.93,0,0,0,8.67-4.26l1.41-1.85H263.13v27.12h21a10.93,10.93,0,0,0,8.64-4.23l1.37-1.78Z" transform="translate(-5.75 -11.03)" style="fill:#fff"/><path d="M333.09,219.14c-1-1-1.77-1.75-2.36-2.32a18.58,18.58,0,0,0-1.56-1.36l-1.13-.87,1.41-.27a8.69,8.69,0,0,0,2.9-1.09,8,8,0,0,0,2.16-1.86,8.05,8.05,0,0,0,1.37-2.49,9.09,9.09,0,0,0,.47-2.93,7.85,7.85,0,0,0-1.26-4.63,9.49,9.49,0,0,0-3.29-2.91,14.44,14.44,0,0,0-4.52-1.53,30,30,0,0,0-4.88-.44H304.45l-4.73,6.11h23.4a7.16,7.16,0,0,1,3.91.93,3.4,3.4,0,0,1,1.57,3,3.26,3.26,0,0,1-1.71,2.88,7.07,7.07,0,0,1-3.77,1H299.05v13.22h7.5v-7.51H321l3.18,3.76a10.52,10.52,0,0,0,8.05,3.75h5.06Z" transform="translate(-5.75 -11.03)" style="fill:#fff"/><path d="M375.81,209.59c-1.7-1.2-4.25-1.8-7.57-1.8H352.78a5.12,5.12,0,0,1-2.6-.54,2.3,2.3,0,0,1-1.05-2.1,2.23,2.23,0,0,1,1.06-2.09,5.35,5.35,0,0,1,2.59-.51h14.37a10.11,10.11,0,0,0,8.05-4l1.62-2.13H353.46a20.35,20.35,0,0,0-5.36.62,10.11,10.11,0,0,0-3.55,1.67,6.44,6.44,0,0,0-2,2.53,8.52,8.52,0,0,0-.65,3.38,8,8,0,0,0,.59,3.09,5.83,5.83,0,0,0,1.77,2.31,8.8,8.8,0,0,0,3.08,1.53,15.75,15.75,0,0,0,4.57.57h15.46a4.78,4.78,0,0,1,2.64.58,2.32,2.32,0,0,1,1,2.11,2.41,2.41,0,0,1-1,2.12,4.72,4.72,0,0,1-2.65.6h-16.2a10.13,10.13,0,0,0-8,3.94l-1.6,2.07h25.13a20.38,20.38,0,0,0,5.37-.62,10,10,0,0,0,3.57-1.69,6.43,6.43,0,0,0,2-2.67,10.1,10.1,0,0,0,.64-3.68A6.06,6.06,0,0,0,375.81,209.59Z" transform="translate(-5.75 -11.03)" style="fill:#fff"/><polygon points="80.66 206.72 80.61 206.72 80.64 206.68 80.66 206.72" style="fill:#fff"/><path d="M82.46,198.67a7.81,7.81,0,0,0-2.1-2.11,5.89,5.89,0,0,0-6,.06,9.2,9.2,0,0,0-2.11,2.06L54.74,223.34h3.92a9.46,9.46,0,0,0,7.73-4L77.24,204l9.34,13.48,0,0,1,1.56a9.45,9.45,0,0,0,7.9,4.25h4ZM69,223.34h8.67A9.13,9.13,0,0,0,85,219.61l1.53-2.08-13.2-.2Z" transform="translate(-5.75 -11.03)" style="fill:#fff"/></svg>