<svg id="Capa_1" data-name="Capa 1" xmlns="http://www.w3.org/2000/svg" viewBox="0 0 372.7 191.08"><path d="M271.05,42.53a24.48,24.48,0,0,0-23.61,18.16l-7,23.78-5.1-10.89c-.81-1.68-1.71-3.53-2.74-5.56s-2.18-4.26-3.51-6.75-2.87-5.43-4.67-8.74l-12.6-24a24.34,24.34,0,0,0-3.38-5.17A14.79,14.79,0,0,0,205,20.59a10,10,0,0,0-3.64-1.25,30.7,30.7,0,0,0-9.08,0,9.85,9.85,0,0,0-3.6,1.25,12.81,12.81,0,0,0-3.34,2.75A24.9,24.9,0,0,0,182,28.51L169.27,52.4c-3.3,6.11-5.91,11.19-8,15.19s-3.77,7.66-5.22,10.94l-2.79,6.11-6.85-24a24.48,24.48,0,0,0-23.61-18.16h-6l18.88,58.81c1.16,4,3,6.89,5.62,8.74a14.52,14.52,0,0,0,8.69,2.75,14.08,14.08,0,0,0,8.44-2.36,19.74,19.74,0,0,0,5.83-6.59l15.12-27c2.06-3.7,3.86-6.93,5.36-9.64s2.82-5.21,4-7.45,2.19-4.22,3.09-6,1.67-3.49,2.44-5.17l1.84-4.17,4.63,9.34c.9,1.76,1.93,3.74,3.13,5.94s2.61,4.78,4.11,7.57,3.3,6,5.35,9.69l15.13,26.86a20.8,20.8,0,0,0,6,6.67,14.4,14.4,0,0,0,8.31,2.28,14.65,14.65,0,0,0,8.74-2.75,16,16,0,0,0,5.61-8.74l19.27-58.81Z" transform="translate(-10.23 -19)" style="fill:#fff"/><path d="M196.09,80.72l-17.54,30.52a.57.57,0,0,0,.49.85h35.08a.57.57,0,0,0,.49-.85L197.07,80.72A.56.56,0,0,0,196.09,80.72Z" transform="translate(-10.23 -19)" style="fill:#3bb396"/><path d="M236.08,149.8v3.85h15.55v2.91H236.09v3.85h15.53v3.34H244c-3,0-5.95,0-8.92,0-1.93,0-2.75-.83-2.77-2.72,0-4.44,0-8.33,0-11.87a2.3,2.3,0,0,1,2.52-2.57q3.79,0,7.62,0h9.22v3.24Z" transform="translate(-10.23 -19)" style="fill:#fff"/><polygon points="197.35 127.67 197.35 144.63 193.92 144.63 193.92 137.76 179.72 137.76 179.72 144.59 176.19 144.59 176.19 127.71 179.66 127.71 179.66 134.55 193.79 134.55 193.79 127.67 197.35 127.67" style="fill:#fff"/><polygon points="151.49 127.71 151.49 130.73 142.9 130.73 142.9 144.62 139.27 144.62 139.27 130.89 130.61 130.89 130.61 127.71 151.49 127.71" style="fill:#fff"/><path d="M59.2,182.35a7.36,7.36,0,0,0-7.09,5.45l-1.08,4c-.42,1.59-.81,3-1.13,4.27s-.59,2.43-.81,3.54l-.39,1.93-1.53-3.27c-.24-.5-.51-1.06-.82-1.67s-.66-1.28-1.06-2-.86-1.63-1.4-2.62l-3.78-7.22a7.55,7.55,0,0,0-1-1.55,4.47,4.47,0,0,0-1-.83A3.13,3.13,0,0,0,37,182a8.92,8.92,0,0,0-2.73,0,3,3,0,0,0-1.08.37,3.81,3.81,0,0,0-1,.83,7.3,7.3,0,0,0-1,1.55l-3.84,7.18c-1,1.83-1.77,3.36-2.39,4.56s-1.13,2.3-1.57,3.29l-.84,1.83-.38-2c-.24-1.15-.49-2.34-.79-3.55s-.67-2.63-1.12-4.24l-1.08-4a7.35,7.35,0,0,0-7.09-5.45H10.23l7,24.27a4.8,4.8,0,0,0,1.69,2.63,4.38,4.38,0,0,0,2.61.82,4.24,4.24,0,0,0,2.54-.71,6,6,0,0,0,1.75-2l4.54-8.1,1.61-2.9,1.21-2.24c.35-.66.65-1.27.93-1.8s.5-1,.73-1.55l.55-1.25,1.39,2.8c.27.53.58,1.13.94,1.79s.79,1.43,1.24,2.27,1,1.8,1.61,2.91l4.54,8.07a6.26,6.26,0,0,0,1.79,2,4.34,4.34,0,0,0,2.5.68,4.43,4.43,0,0,0,2.62-.82,4.86,4.86,0,0,0,1.69-2.63l7.1-24.27Z" transform="translate(-10.23 -19)" style="fill:#fff"/><path d="M134.48,187.63v12.31L116,183.25a4.93,4.93,0,0,0-1.67-1.12,4.66,4.66,0,0,0-3,0,3.36,3.36,0,0,0-1.29.79,4,4,0,0,0-.91,1.44,5.89,5.89,0,0,0-.36,2.2v23h1.44a5.27,5.27,0,0,0,5.26-5.29V192l18.48,16.67a4.49,4.49,0,0,0,1.63,1.14,4.91,4.91,0,0,0,3.1,0,3.08,3.08,0,0,0,1.28-.81,4,4,0,0,0,.93-1.47,6.12,6.12,0,0,0,.36-2.19v-23h-1.48A5.26,5.26,0,0,0,134.48,187.63Z" transform="translate(-10.23 -19)" style="fill:#fff"/><path d="M181.34,190.34a12.82,12.82,0,0,0-3.39-4.23,16,16,0,0,0-5.2-2.77,21.52,21.52,0,0,0-6.68-1H153l-4.63,6.14h17.73a10.61,10.61,0,0,1,3.52.57,9.41,9.41,0,0,1,2.87,1.55,7.12,7.12,0,0,1,1.95,2.42,7,7,0,0,1,0,6.14,7.17,7.17,0,0,1-1.9,2.37,8.61,8.61,0,0,1-2.87,1.5,11.67,11.67,0,0,1-3.57.53H155.24v-4H154a6.31,6.31,0,0,0-6.29,6.32v3.72h18.39a19.85,19.85,0,0,0,6.62-1.07,16.29,16.29,0,0,0,5.21-2.94,13.42,13.42,0,0,0,3.41-4.4,12.55,12.55,0,0,0,1.24-5.49A12,12,0,0,0,181.34,190.34Z" transform="translate(-10.23 -19)" style="fill:#fff"/><path d="M195.83,203.57v-5.19h17.79l4-5.18H195.83v-4.71h13.34a10.93,10.93,0,0,0,8.67-4.29l1.41-1.85h-31v27.26h21a10.93,10.93,0,0,0,8.65-4.27l1.36-1.77Z" transform="translate(-10.23 -19)" style="fill:#fff"/><path d="M258.28,205.16c-1-1-1.77-1.76-2.36-2.33s-1.09-1-1.55-1.37l-1.14-.87,1.39-.27a8.94,8.94,0,0,0,2.92-1.1,7.87,7.87,0,0,0,2.17-1.87,8.29,8.29,0,0,0,1.36-2.5,9.21,9.21,0,0,0,.46-2.95,7.91,7.91,0,0,0-1.26-4.65,9.22,9.22,0,0,0-3.28-2.92,14.29,14.29,0,0,0-4.52-1.54,29,29,0,0,0-4.9-.44H229.63l-4.74,6.14h23.4a7.21,7.21,0,0,1,3.93.93,3.43,3.43,0,0,1,1.57,3,3.29,3.29,0,0,1-1.72,2.9,7.17,7.17,0,0,1-3.78.95H224.22v13.3h7.51v-7.55h14.45l3.16,3.77a10.51,10.51,0,0,0,8.07,3.78h5.06Z" transform="translate(-10.23 -19)" style="fill:#fff"/><path d="M275.31,203.57v-5.19h17.78l4-5.18H275.31v-4.71h13.32a10.93,10.93,0,0,0,8.67-4.29l1.42-1.85h-31v27.26h21a10.9,10.9,0,0,0,8.64-4.26l1.38-1.78Z" transform="translate(-10.23 -19)" style="fill:#fff"/><path d="M337.74,205.16c-1-1-1.76-1.76-2.35-2.33s-1.1-1-1.56-1.37l-1.13-.87,1.4-.27a9,9,0,0,0,2.91-1.1,7.82,7.82,0,0,0,2.16-1.87,8.29,8.29,0,0,0,1.36-2.5,9.21,9.21,0,0,0,.48-2.95,8,8,0,0,0-1.26-4.65,9.37,9.37,0,0,0-3.3-2.92,14.15,14.15,0,0,0-4.51-1.54,29.12,29.12,0,0,0-4.89-.44h-18l-4.74,6.14h23.42a7.14,7.14,0,0,1,3.91.93,3.43,3.43,0,0,1,1.57,3,3.28,3.28,0,0,1-1.71,2.9,7.15,7.15,0,0,1-3.77.95H303.69v13.3h7.5v-7.55h14.45l3.18,3.78a10.51,10.51,0,0,0,8.06,3.77h5.06Z" transform="translate(-10.23 -19)" style="fill:#fff"/><path d="M380.48,195.56c-1.7-1.2-4.24-1.81-7.56-1.81H357.45a5.06,5.06,0,0,1-2.6-.54,2.29,2.29,0,0,1-1.06-2.11,2.25,2.25,0,0,1,1.07-2.11,5.43,5.43,0,0,1,2.59-.5h14.38a10.08,10.08,0,0,0,8.05-4l1.62-2.13H358.13a20,20,0,0,0-5.37.62,10,10,0,0,0-3.55,1.68,6.44,6.44,0,0,0-2,2.53,8.67,8.67,0,0,0-.65,3.41,8,8,0,0,0,.59,3.1,6,6,0,0,0,1.77,2.33,9,9,0,0,0,3.09,1.54,16.08,16.08,0,0,0,4.57.56h15.47a4.76,4.76,0,0,1,2.63.59,2.31,2.31,0,0,1,1,2.12,2.42,2.42,0,0,1-1,2.13,4.74,4.74,0,0,1-2.65.61H355.85a10.12,10.12,0,0,0-8,4l-1.6,2.09h25.14a20.38,20.38,0,0,0,5.37-.62,9.87,9.87,0,0,0,3.58-1.71,6.34,6.34,0,0,0,2-2.68,10.16,10.16,0,0,0,.64-3.69A6.11,6.11,0,0,0,380.48,195.56Z" transform="translate(-10.23 -19)" style="fill:#fff"/><polygon points="80.7 184.76 80.65 184.76 80.68 184.72 80.7 184.76" style="fill:#fff"/><path d="M87,184.58a7.84,7.84,0,0,0-2.1-2.12,5.17,5.17,0,0,0-3-.8,5.09,5.09,0,0,0-3.06.87,9,9,0,0,0-2.11,2.07L59.25,209.39h3.92a9.46,9.46,0,0,0,7.74-4L81.76,190,91.1,203.5l0,0,1,1.58a9.5,9.5,0,0,0,7.91,4.27h4ZM73.49,209.39h8.68a9.12,9.12,0,0,0,7.37-3.75l1.53-2.1-13.2-.19Z" transform="translate(-10.23 -19)" style="fill:#fff"/></svg>