<?xml version="1.0" encoding="utf-8"?>
<!-- Generator: Adobe Illustrator 25.4.1, SVG Export Plug-In . SVG Version: 6.00 Build 0)  -->
<svg version="1.1" id="Capa_1" xmlns="http://www.w3.org/2000/svg" xmlns:xlink="http://www.w3.org/1999/xlink" x="0px" y="0px"
	 viewBox="0 0 469 284" style="enable-background:new 0 0 469 284;" xml:space="preserve">
<style type="text/css">
	.st0{fill:#3CB395;}
	.st1{fill:#FFFFFF;}
	.st2{fill:#626362;}
</style>
<g>
	<g>
		<g>
			<g>
				<polygon class="st0" points="239.8,91.1 237.8,125.7 237.7,126.2 207.7,105.5 208.2,105.3 				"/>
			</g>
		</g>
		<g>
			<g>
				<path class="st1" d="M188,59.1l-10.5,4.7c2-5.7,4.8-11.2,8.4-16.4C202,24.1,229.8,13.6,256,18.4c-22.9-3-46.7,6.6-60.7,26.9
					C192.2,49.7,189.8,54.3,188,59.1z"/>
			</g>
			<g>
				<path class="st1" d="M252.9,144.8l12.9,8.9c-20.2,6.8-43.2,4.3-62.1-8.8c-18.9-13.1-29.4-33.7-30.2-55l12.9,8.9
					c3.9,13.7,12.4,26.2,25,34.9C224,142.5,238.7,146,252.9,144.8z"/>
			</g>
			<g>
				<path class="st1" d="M301.1,127.1c-3.6,5.2-7.7,9.7-12.3,13.6l0.7-11.5c3.9-3.4,7.4-7.3,10.4-11.7c14.1-20.3,14.6-46,3.7-66.4
					C317.3,74.1,317.3,103.8,301.1,127.1z"/>
			</g>
		</g>
		<path class="st1" d="M278,27.7L167.6,77.2l9.2,6.4c9.5,6.6,21.7,7.7,32.3,3L250,68.2L278,27.7z"/>
		<path class="st1" d="M257.6,73.5l-2.7,44.8c-0.7,11.5,4.7,22.6,14.2,29.2l9.2,6.4l0.8-12.7l0.6-10.5l5.9-97.5L257.6,73.5z"/>
	</g>
	<g>
		<g>
			<g>
				<path class="st1" d="M283.7,197v4.6h18.7v3.5h-18.7v4.6h18.7v4h-9.2c-3.6,0-7.2,0-10.7,0c-2.3,0-3.3-1-3.3-3.3
					c0-5.3,0-10,0-14.2c0-2,1.1-3.1,3-3.1c3,0,6.1,0,9.2,0c2,0,4,0,6,0h5.1v3.9H283.7z"/>
			</g>
			<g>
				<polygon class="st1" points="249.4,193.3 249.4,213.6 245.2,213.6 245.2,205.4 228.1,205.4 228.1,213.5 223.9,213.5 
					223.9,193.3 228.1,193.3 228.1,201.5 245.1,201.5 245.1,193.3 				"/>
			</g>
			<g>
				<polygon class="st1" points="194.1,193.3 194.1,196.9 183.8,196.9 183.8,213.6 179.4,213.6 179.4,197.1 169,197.1 169,193.3 
									"/>
			</g>
		</g>
		<g>
			<g>
				<path class="st1" d="M70.5,236c-4,0-7.5,2.7-8.5,6.5l-1.3,4.8c-0.5,1.9-1,3.6-1.4,5.1c-0.4,1.5-0.7,2.9-1,4.2l-0.5,2.3l-1.8-3.9
					c-0.3-0.6-0.6-1.3-1-2c-0.4-0.7-0.8-1.5-1.3-2.4c-0.5-0.9-1-2-1.7-3.1l-4.6-8.6c-0.4-0.8-0.8-1.4-1.2-1.9
					c-0.4-0.4-0.8-0.8-1.2-1c-0.4-0.2-0.9-0.4-1.3-0.4c-1-0.2-2.2-0.2-3.3,0c-0.4,0.1-0.9,0.2-1.3,0.4c-0.4,0.2-0.8,0.6-1.2,1
					c-0.4,0.4-0.8,1.1-1.2,1.9l-4.6,8.6c-1.2,2.2-2.1,4-2.9,5.5c-0.7,1.4-1.4,2.8-1.9,3.9l-1,2.2l-0.5-2.4c-0.3-1.4-0.6-2.8-0.9-4.3
					c-0.4-1.5-0.8-3.1-1.3-5.1l-1.3-4.8c-1-3.9-4.5-6.5-8.5-6.5h-2.2l8.4,29.1c0.4,1.4,1.1,2.5,2,3.1c0.9,0.7,2,1,3.1,1
					c1.2,0,2.3-0.3,3.1-0.9c0.9-0.6,1.5-1.4,2.1-2.4l5.5-9.7c0.7-1.3,1.4-2.5,1.9-3.5c0.5-1,1-1.9,1.5-2.7c0.4-0.8,0.8-1.5,1.1-2.2
					c0.3-0.6,0.6-1.3,0.9-1.9l0.7-1.5l1.7,3.4c0.3,0.6,0.7,1.3,1.1,2.1c0.4,0.8,0.9,1.7,1.5,2.7c0.5,1,1.2,2.2,1.9,3.5l5.5,9.7
					c0.6,1,1.3,1.8,2.2,2.4c0.8,0.5,1.8,0.8,3,0.8c1.2,0,2.2-0.3,3.2-1c0.9-0.7,1.6-1.7,2-3.1l8.6-29.1H70.5z"/>
			</g>
			<g>
				<path class="st1" d="M103.9,239c-0.7-1-1.5-1.9-2.5-2.5c-0.9-0.6-2.1-1-3.6-1c-1.5,0-2.7,0.4-3.7,1c-1,0.7-1.9,1.6-2.5,2.5
					l-21.1,29.7h4.7c3.7,0,7.2-1.8,9.3-4.8l13.1-18.5l11.3,16.2l0,0l1.2,1.9c2.1,3.2,5.7,5.1,9.5,5.1h4.8L103.9,239z M87.7,268.7
					h10.4c3.5,0,6.8-1.7,8.9-4.5l1.8-2.5L93,261.5L87.7,268.7z"/>
			</g>
			<g>
				<path class="st1" d="M161.3,242.4v14.7l-22.3-20c-0.8-0.7-1.5-1.2-2-1.3c-1.3-0.4-2.5-0.4-3.6,0c-0.6,0.2-1.1,0.5-1.5,0.9
					c-0.4,0.4-0.8,1-1.1,1.7c-0.3,0.7-0.4,1.6-0.4,2.6v27.6h1.7c3.5,0,6.3-2.8,6.3-6.3v-14.7l22.3,20c0.7,0.7,1.4,1.2,2,1.4
					c1.2,0.4,2.5,0.4,3.7,0c0.6-0.2,1.1-0.5,1.5-1c0.5-0.4,0.8-1.1,1.1-1.8c0.3-0.7,0.4-1.6,0.4-2.6V236h-1.8
					C164.2,236,161.3,238.9,161.3,242.4z"/>
			</g>
			<g>
				<path class="st1" d="M217.8,245.6c-1-2-2.3-3.7-4.1-5.1c-1.7-1.4-3.8-2.5-6.3-3.3c-2.4-0.8-5.1-1.2-8-1.2h-15.8l-5.6,7.4h21.4
					c1.5,0,2.9,0.2,4.2,0.7c1.3,0.4,2.5,1.1,3.5,1.9c1,0.8,1.8,1.8,2.4,2.9c0.6,1.1,0.9,2.4,0.9,3.7c0,1.3-0.3,2.6-0.9,3.7
					c-0.6,1.1-1.3,2.1-2.3,2.8c-1,0.8-2.1,1.4-3.5,1.8c-1.3,0.4-2.8,0.6-4.3,0.6h-13v-4.8h-1.5c-4.2,0-7.6,3.4-7.6,7.6v4.5h22.1
					c2.9,0,5.5-0.4,8-1.3c2.4-0.9,4.5-2,6.3-3.5c1.7-1.5,3.1-3.2,4.1-5.3c1-2,1.5-4.2,1.5-6.6C219.2,249.7,218.7,247.5,217.8,245.6z
					"/>
			</g>
			<g>
				<path class="st1" d="M235.2,261.5v-6.2h21.4l4.9-6.2h-26.3v-5.6h16.1c4.1,0,7.9-1.9,10.4-5.1l1.7-2.2h-37.3v32.7h25.3
					c4.1,0,7.9-1.9,10.4-5.1l1.6-2.1H235.2z"/>
			</g>
			<g>
				<path class="st1" d="M310.4,263.4c-1.2-1.2-2.1-2.1-2.8-2.8c-0.7-0.7-1.3-1.2-1.9-1.6l-1.4-1l1.7-0.3c1.3-0.3,2.5-0.7,3.5-1.3
					c1-0.6,1.9-1.4,2.6-2.2c0.7-0.9,1.3-1.9,1.6-3c0.4-1.1,0.6-2.3,0.6-3.5c0-2.3-0.5-4.2-1.5-5.6c-1-1.5-2.4-2.7-4-3.5
					c-1.6-0.9-3.5-1.5-5.4-1.8c-2-0.3-4-0.5-5.9-0.5h-21.6l-5.7,7.4h28.2c2,0,3.6,0.4,4.7,1.1c1.3,0.8,1.9,2,1.9,3.6
					c0,1.5-0.7,2.7-2.1,3.5c-1.3,0.8-2.8,1.1-4.6,1.1h-29v15.9h9v-9.1h17.4l3.8,4.5c2.4,2.9,6,4.5,9.7,4.5h6.1L310.4,263.4z"/>
			</g>
			<g>
				<path class="st1" d="M330.9,261.5v-6.2h21.4l4.9-6.2h-26.3v-5.6h16c4.1,0,7.9-1.9,10.4-5.1l1.7-2.2h-37.3v32.7h25.3
					c4.1,0,7.9-1.9,10.4-5.1l1.7-2.1H330.9z"/>
			</g>
			<g>
				<path class="st1" d="M406.1,263.4c-1.2-1.2-2.1-2.1-2.8-2.8c-0.7-0.7-1.3-1.2-1.9-1.6l-1.4-1l1.7-0.3c1.3-0.3,2.5-0.7,3.5-1.3
					c1-0.6,1.9-1.4,2.6-2.2c0.7-0.9,1.3-1.9,1.6-3c0.4-1.1,0.6-2.3,0.6-3.5c0-2.3-0.5-4.2-1.5-5.6c-1-1.5-2.4-2.7-4-3.5
					c-1.6-0.9-3.4-1.5-5.4-1.8c-2-0.3-4-0.5-5.9-0.5h-21.6l-5.7,7.4h28.2c2,0,3.6,0.4,4.7,1.1c1.3,0.8,1.9,2,1.9,3.6
					c0,1.5-0.7,2.7-2.1,3.5c-1.2,0.8-2.8,1.1-4.5,1.1h-29v15.9h9v-9.1h17.4l3.8,4.5c2.4,2.9,6,4.5,9.7,4.5h6.1L406.1,263.4z"/>
			</g>
			<g>
				<path class="st1" d="M457.6,251.9c-2-1.4-5.1-2.2-9.1-2.2h-18.6c-1.4,0-2.4-0.2-3.1-0.7c-0.6-0.4-1.3-1.1-1.3-2.5
					c0-1.5,0.7-2.2,1.3-2.5c0.7-0.4,1.8-0.6,3.1-0.6h17.3c3.8,0,7.4-1.8,9.7-4.8l1.9-2.6h-28.1c-2.5,0-4.7,0.2-6.5,0.7
					c-1.8,0.5-3.2,1.2-4.3,2c-1.1,0.8-1.9,1.9-2.4,3c-0.5,1.2-0.8,2.6-0.8,4.1c0,1.3,0.2,2.6,0.7,3.7c0.4,1.1,1.2,2,2.1,2.8
					c1,0.8,2.2,1.4,3.7,1.8c1.5,0.5,3.4,0.7,5.5,0.7h18.6c1.4,0,2.5,0.2,3.2,0.7c0.6,0.4,1.2,1.1,1.2,2.5c0,1.4-0.7,2.2-1.2,2.6
					c-0.7,0.5-1.8,0.7-3.2,0.7h-19.5c-3.8,0-7.3,1.7-9.6,4.7l-1.9,2.5h30.3c2.5,0,4.7-0.2,6.5-0.7c1.8-0.5,3.2-1.2,4.3-2
					c1.1-0.9,1.9-2,2.4-3.2c0.5-1.3,0.8-2.8,0.8-4.4C460.5,255.4,459.5,253.3,457.6,251.9z"/>
			</g>
		</g>
		<polygon class="st2" points="108.9,261.7 108.9,261.7 108.9,261.6 		"/>
	</g>
</g>
</svg>
