<svg id="Capa_1" data-name="Capa 1" xmlns="http://www.w3.org/2000/svg" viewBox="0 0 563.13 14.51"><path d="M498.62,12.57l-70.4-.41c-23.46-.19-46.92-.15-70.39-.22l-19.3,0-9.88-7.06H238l-9.9,7.08-11,0c-23.46.07-46.93,0-70.39.21l-70.39.42c-23.47.25-46.93.39-70.39.73,23.46.34,46.92.49,70.39.74l70.39.42c23.46.18,46.93.14,70.39.21l34.71.06,4,4.63h55.84l4-4.61,42.27-.08c23.47-.07,46.93,0,70.39-.22l70.4-.42c23.46-.24,46.92-.39,70.39-.73C545.54,13,522.08,12.82,498.62,12.57Z" transform="translate(-5.88 -4.84)" style="fill:#75bdd7"/></svg>