<svg id="Capa_1" data-name="Capa 1" xmlns="http://www.w3.org/2000/svg" viewBox="0 0 563.13 9.96"><path d="M497.62,14l-70.4-.42c-23.46-.18-46.92-.14-70.39-.21l-40.47-.08-6.05-7H254.47l-6.07,7-32.35.06c-23.46.07-46.93,0-70.39.21L75.27,14c-23.47.25-46.93.39-70.39.73,23.46.34,46.92.49,70.39.74l70.39.42c23.46.18,46.93.14,70.39.21l70.39.13,70.39-.13c23.47-.07,46.93,0,70.39-.22l70.4-.42c23.46-.24,46.92-.39,70.39-.73C544.54,14.34,521.08,14.2,497.62,14Z" transform="translate(-4.88 -6.22)" style="fill:#75bdd7"/></svg>