<svg id="Capa_1" data-name="Capa 1" xmlns="http://www.w3.org/2000/svg" viewBox="0 0 563.13 213.18"><path d="M577.67,189.83c-23.47.34-46.93.49-70.4.73l-70.39.42c-23.46.18-46.92.15-70.39.22l-70.39.13-70.39-.13c-23.46-.07-46.93,0-70.39-.21l-70.39-.42c-23.47-.25-46.93-.4-70.39-.74,23.46-.34,46.92-.48,70.39-.73l70.39-.42c23.46-.18,46.93-.14,70.39-.21l70.39-.14,70.39.14c23.47.07,46.93,0,70.39.21l70.39.42C530.74,189.35,554.2,189.49,577.67,189.83Z" transform="translate(-14.54 -16.3)" style="fill:#75bcd8"/><path d="M577.67,24.76c-23.47.34-46.93.48-70.4.73l-70.39.42c-23.46.18-46.92.14-70.39.21l-70.39.14-70.39-.14c-23.46-.07-46.93,0-70.39-.21l-70.39-.42c-23.47-.25-46.93-.39-70.39-.73C38,24.42,61.46,24.27,84.93,24l70.39-.42c23.46-.18,46.93-.14,70.39-.21l70.39-.13,70.39.14c23.47.06,46.93,0,70.39.21l70.39.42C530.74,24.27,554.2,24.42,577.67,24.76Z" transform="translate(-14.54 -16.3)" style="fill:#75bcd8"/><polygon points="335.47 9.07 322.77 0 232.07 0 219.83 8.75 335.47 9.07" style="fill:#75bdd7"/><polygon points="242.05 5.44 249.87 14.51 305.71 14.51 313.25 5.77 242.05 5.44" style="fill:#75bdd7"/><polygon points="313.25 174.14 305.43 165.07 249.59 165.07 242.05 173.82 313.25 174.14" style="fill:#75bdd7"/><path d="M159.71,190.44q7.51,9.19,14.93,18.48l7.44,9.25c2.49,3.08,4.92,6.2,7.39,9.29l-.67-.33,26-.28,13-.14,13-.07c17.32-.13,34.64-.12,52-.16s34.63,0,52,.17q13,0,26,.22l26,.28-.65.32c4.72-6,9.53-11.85,14.31-17.77s9.56-11.83,14.4-17.7q-6.78,9.18-13.66,18.28c-4.58,6.07-9.12,12.18-13.75,18.21l-.24.31h-.41l-26,.28q-13,.16-26,.22c-17.32.13-34.64.13-52,.17s-34.64,0-52-.16l-13-.07-13-.14-26-.28h-.42l-.25-.32c-2.38-3.16-4.79-6.3-7.15-9.48l-7.11-9.51C169.13,203.17,164.39,196.83,159.71,190.44Z" transform="translate(-14.54 -16.3)" style="fill:#75bcd8"/></svg>