<svg id="Layer_1" data-name="Layer 1" xmlns="http://www.w3.org/2000/svg" viewBox="0 0 327.09 322.3"><defs><style>.cls-1{fill:#00acc1;}</style></defs><title>marco</title><path class="cls-1" d="M14.59,307.88H312.3V14.52H14.59ZM197.15,17.41l6.09,6.35H309.41V286.43L291.61,305H131.34l-6.89-7.18H32.67l-6.62-6.9h-.24V199.73l-8.32-8V17.41Z"/><polygon class="cls-1" points="326.84 315.73 327.08 315.48 326.84 315.48 326.84 34 320.87 30.64 320.87 15.84 319.18 15.84 319.18 314.64 7.72 314.64 7.72 275.38 6.03 275.38 6.03 316.33 280.51 316.33 283.46 322.3 320.27 322.3 325.61 316.96 326.84 315.86 326.84 315.73"/><polygon class="cls-1" points="6.03 52.88 7.72 52.88 7.72 7.76 99.73 7.76 99.73 6.07 81.11 6.07 75.15 0 4.7 0 0.12 6.94 0.14 6.94 0 7.06 0 31.46 6.03 37.49 6.03 52.88"/></svg>