<?xml version="1.0" encoding="utf-8"?>
<!-- Generator: Adobe Illustrator 25.4.1, SVG Export Plug-In . SVG Version: 6.00 Build 0)  -->
<svg version="1.1" id="Capa_1" xmlns="http://www.w3.org/2000/svg" xmlns:xlink="http://www.w3.org/1999/xlink" x="0px" y="0px"
	viewBox="0 0 1364.8 167" style="enable-background:new 0 0 1364.8 167;" xml:space="preserve">

<path  d="M1364.9,97.9v57.3H-0.1v-122L5,39.6c0,0,5.5,12.1,25.2,5.6s49.8,11.1,49.8,11.1s0,16.6,27.8,16.6
	c27.8,0,8.3-33.3,30.5-41.6c8.3-2.8,13.9,8.3,13.9,8.3s8.3-2.8,16.6-2.8c8.3,0,22.2,5.6,38.9,8.3c16.7,2.8,36.1-2.8,52.7-2.8
	c16.7,0,30.5,2.8,30.5,2.8s8.3,30.5,13.9,25c5.6-5.6,8.3-13.9,8.3-13.9s0,5.5,16.6,11.1c16.7,5.6,16.7-11.1,25-11.1
	c8.3,0,11.1,13.9,22.2,13.9c11.1,0,27.8,2.8,27.8,2.8l5.5,16.6c-0.2-0.9-1.7-7.5,13.9,2.9c16.6,11.1,11.1,25,25,22.2
	c13.9-2.8,22.2-36.1,38.8-36.1c16.7,0,16.7,16.6,16.7,16.6s16.6,0,33.3-8.3c16.6-8.3,30.5-11.1,30.5-11.1s-11.1-8.3,8.3-11.1
	c19.4-2.8,19.4,5.6,27.8,8.3C612.8,75.7,635,59,648.8,59c13.9,0,13.9,5.5,30.5,5.5c16.1,0,12.2-5.9,19.1-9.7l19.2,0.9
	c2.4,0.3,5.3,0.5,8.9,0.5c0.2,0,0.4,0,0.5,0c19.2-0.3,35.5-16.6,35.5-16.6s2.8-27.8,19.4-27.8h105.5c0,0,16.6-8.3,36.1,0
	c19.4,8.3,30.5,13.9,30.5,13.9s8.3-5.5,19.4-8.3c11.1-2.8,13.9,8.3,25,11.1c11.1,2.8,8.3,13.9,22.2,13.9c13.9,0,36.1-22.2,50-22.2
	c13.9,0,16.6,8.3,16.6,8.3l19.4-25c0,0,8.3,30.5,27.8,30.5c19.4,0,22.2-5.5,38.8-5.5c16.7,0,11.1,5.5,25,5.5
	c13.9,0,25,11.1,36.1,16.6c11.1,5.6-2.8,19.4,22.2,22.2c25,2.8,27.8,0,38.9,0c7.1,0,1.8,5.6,0.6,11.1c-0.7,3.1,0,6.3,5,8.3
	c9.9,4,15.6-3.4,23.1-6.9l17.7,0.9c8.4,3.5,12,8.8,12,8.8L1364.9,97.9z" style="fill:#18233E" />
<path  d="M1364.9,110.2v57.3H-0.1v-122L5,51.9c0,0,5.5,12.1,25.2,5.6s49.8,11.1,49.8,11.1s0,16.6,27.8,16.6
	c27.8,0,8.3-33.3,30.5-41.6c8.3-2.8,13.9,8.3,13.9,8.3s8.3-2.8,16.6-2.8c8.3,0,22.2,5.6,38.9,8.3c16.7,2.8,36.1-2.8,52.7-2.8
	c16.7,0,30.5,2.8,30.5,2.8s8.3,30.5,13.9,25c5.6-5.6,8.3-13.9,8.3-13.9s0,5.5,16.6,11.1c16.7,5.6,16.7-11.1,25-11.1
	c8.3,0,11.1,13.9,22.2,13.9c11.1,0,27.8,2.8,27.8,2.8l5.5,16.6c-0.2-0.9-1.7-7.5,13.9,2.9c16.6,11.1,11.1,25,25,22.2
	c13.9-2.8,22.2-36.1,38.8-36.1c16.7,0,16.7,16.6,16.7,16.6s16.6,0,33.3-8.3c16.6-8.3,30.5-11.1,30.5-11.1s-11.1-8.3,8.3-11.1
	c19.4-2.8,19.4,5.6,27.8,8.3c8.3,2.8,30.5-13.9,44.4-13.9c13.9,0,13.9,5.5,30.5,5.5c16.1,0,12.2-5.9,19.1-9.7l19.2,0.9
	c2.4,0.3,5.3,0.5,8.9,0.5c0.2,0,0.4,0,0.5,0c19.2-0.3,35.5-16.6,35.5-16.6s2.8-27.8,19.4-27.8h105.5c0,0,16.6-8.3,36.1,0
	C943,32.5,954.1,38,954.1,38s8.3-5.5,19.4-8.3c11.1-2.8,13.9,8.3,25,11.1c11.1,2.8,8.3,13.9,22.2,13.9c13.9,0,36.1-22.2,50-22.2
	c13.9,0,16.6,8.3,16.6,8.3l19.4-25c0,0,8.3,30.5,27.8,30.5c19.4,0,22.2-5.5,38.8-5.5c16.7,0,11.1,5.5,25,5.5
	c13.9,0,25,11.1,36.1,16.6c11.1,5.6-2.8,19.4,22.2,22.2c25,2.8,27.8,0,38.9,0c7.1,0,1.8,5.6,0.6,11.1c-0.7,3.1,0,6.3,5,8.3
	c9.9,4,15.6-3.4,23.1-6.9l17.7,0.9c8.4,3.5,12,8.8,12,8.8L1364.9,110.2z" style="fill:#03152b" />
</svg>
