<svg id="Capa_1" data-name="Capa 1" xmlns="http://www.w3.org/2000/svg" xmlns:xlink="http://www.w3.org/1999/xlink" viewBox="0 0 44.1 57.1"><defs><clipPath id="clip-path" transform="translate(-3.7 -3.1)"><rect x="3.7" y="3.1" width="44.1" height="57.1" style="fill:none"/></clipPath></defs><title>isl-flecha_derecha</title><g style="opacity:0.9599999785423279"><g style="clip-path:url(#clip-path)"><polygon points="0.2 20.9 12.8 28.6 0.2 36.2 0 36.3 0 20.8 0.2 20.9" style="fill:#fff"/></g><g style="clip-path:url(#clip-path)"><polygon points="0.2 36.2 0 36.3 0 20.8 0.2 20.9 12.8 28.6 0.2 36.2" style="fill:#222"/></g><g style="clip-path:url(#clip-path)"><polygon points="12.8 28.6 0.2 36.2 0.2 20.9 12.8 28.6" style="fill:#fff"/></g><g style="clip-path:url(#clip-path)"><polygon points="0.2 36.2 0.2 20.9 0 20.8 0 36.3 0.2 36.2" style="fill:#222"/></g><g style="clip-path:url(#clip-path)"><polygon points="0 36.3 0 20.8 0.2 20.9 12.8 28.6 0.2 36.2 0 36.3" style="fill:#222"/></g><g style="clip-path:url(#clip-path)"><polygon points="0 36.3 0 20.8 0.2 20.9 12.8 28.6 0.2 36.2 0 36.3" style="fill:#6ebe9a"/></g><g style="clip-path:url(#clip-path)"><path d="M47.8,29.7H26.9L10.7,19.9A14.31,14.31,0,0,1,3.9,7.8V3.1L8.5,5.9l3.8,2.3L45.7,28.4l.3.2Z" transform="translate(-3.7 -3.1)" style="fill:#fff"/></g><g style="clip-path:url(#clip-path)"><path d="M3.9,60.2V55.5a14.18,14.18,0,0,1,6.8-12.1l16.2-9.8H47.8L46,34.7l-.3.2L12.3,55.1,8.5,57.4Z" transform="translate(-3.7 -3.1)" style="fill:#fff"/></g></g><polygon points="0 36.3 0 20.8 0.2 20.9 12.8 28.6 0.2 36.2 0 36.3" style="fill:#6ebe9a"/></svg>