<?xml version="1.0" encoding="utf-8"?>
<!-- Generator: Adobe Illustrator 25.4.1, SVG Export Plug-In . SVG Version: 6.00 Build 0)  -->
<svg version="1.1" id="Capa_1" xmlns="http://www.w3.org/2000/svg" xmlns:xlink="http://www.w3.org/1999/xlink" x="0px" y="0px"
	 viewBox="0 0 32 32" style="enable-background:new 0 0 32 32;" xml:space="preserve">
<style type="text/css">
	.st0{fill:#487F8F;}
</style>
<path class="st0" d="M26.5-41.6c-1.5-1.5-6.6-2.1-6.6-2.1s0,0.5,0,0.7c2.1,0.5,4.1,1.3,5.6,2.8c-0.8-0.7-4.8-2.5-9.6-2.5
	c-4.7,0-8.8,1.8-9.7,2.6c2.6-2.6,5.7-2.9,5.7-2.9s0-0.3,0-0.7C10.4-43.5,7.1-43.1,5-41c-3.1,3.8-4,14-3.8,15.2
	c3.3,4,7.8,3.5,7.8,3.5s1.2-1.5,1.7-2.3c-2.8-0.6-4.2-2.7-4.3-2.8c0.1,0.1,3.3,2.9,9.5,2.9c6.3,0,8.4-2,9.9-2.8
	c-1.2,1.8-4.1,2.8-4.1,2.8s1.3,1.8,1.3,2.1c5.8,0,7.6-3.1,7.9-3.6C30.3-36.3,28-40.1,26.5-41.6z M11.4-29c-1.4,0-2.6-1.1-2.6-2.6
	s1.1-2.6,2.6-2.6S14-33,14-31.6S12.8-29,11.4-29z M20.7-29c-1.4,0-2.6-1.1-2.6-2.6s1.1-2.6,2.6-2.6s2.6,1.1,2.6,2.6S22.1-29,20.7-29
	z"/>
<path class="st0" d="M-33,4.7c1.2,0,1.7,0.7,1.5,1.7c-1.1,5.1-2.3,10.2-3.5,15.3c-0.3,1.4-0.6,2.8-0.9,4.1c-0.3,1.4-1.3,1.8-2.6,1
	c-2-1.3-4-2.7-5.9-4c-0.5-0.4-0.9-0.3-1.3,0.1c-0.9,0.9-1.8,1.7-2.7,2.6c-0.9,0.8-1.8,0.6-2.2-0.6c-0.7-2-1.4-4.1-2.1-6.1
	c-0.2-0.7-0.5-1.1-1.3-1.3c-1.8-0.4-3.6-0.9-5.4-1.5c-0.4-0.1-0.7-0.6-1.1-0.9c0.3-0.3,0.6-0.8,1-1C-51,11.1-42.4,8-33.9,4.9
	C-33.5,4.8-33.2,4.8-33,4.7z M-36.5,9c0-0.1-0.1-0.2-0.1-0.3c-0.2,0-0.4,0.1-0.6,0.2c-4.7,2.7-9.4,5.4-14.2,8.1
	c-0.5,0.3-0.6,0.6-0.4,1.1c0.6,1.6,1.1,3.3,1.6,4.9c0.1,0.2,0.2,0.4,0.3,0.6c0.3-1.1,0.4-2.3,0.6-3.4c0.1-0.5,0.3-1,0.7-1.3
	c3.6-3,7.3-6,11-9C-37.2,9.7-36.9,9.3-36.5,9z"/>
<g>
	<g>
		<path class="st0" d="M10.3,22.5c-2.6-0.3-4.4-1.6-5.4-4.1c0.8,0,1.6,0,2.4,0c0,0,0-0.1,0-0.1c-1.3-0.4-2.4-1-3.2-2.1
			c-0.8-1-1.2-2.2-1.2-3.5c0.8,0.2,1.6,0.4,2.3,0.6c0-0.1,0.1-0.1,0.1-0.2C4,12.1,3.1,10.7,3,9C2.9,7.8,3.1,6.7,3.8,5.6
			c3.1,3.7,7.1,5.7,11.8,6c0.1-1,0.1-2,0.3-2.8C16.9,4.6,22,3.1,25.2,6c0.3,0.3,0.6,0.4,0.9,0.2c0.9-0.3,1.7-0.7,2.6-1
			c0.1,0,0.3-0.1,0.5-0.2C28.8,6.3,28,7.2,27,8c0,0.1,0,0.1,0.1,0.2C28,7.9,29,7.6,29.9,7.3c-0.6,0.9-1.3,1.7-2.1,2.3
			c-0.5,0.4-0.7,0.8-0.7,1.5c0,7.3-4.9,13.8-11.8,15.7c-4.5,1.2-8.8,0.8-12.9-1.5c-0.1-0.1-0.3-0.2-0.4-0.3
			C5.1,25.1,7.8,24.4,10.3,22.5z"/>
	</g>
</g>
</svg>
