<?xml version="1.0" encoding="utf-8"?>
<!-- Generator: Adobe Illustrator 22.0.1, SVG Export Plug-In . SVG Version: 6.00 Build 0)  -->
<svg version="1.1" id="Capa_1" xmlns="http://www.w3.org/2000/svg" xmlns:xlink="http://www.w3.org/1999/xlink" x="0px" y="0px"
	 viewBox="0 0 271 441" style="enable-background:new 0 0 271 441;" xml:space="preserve">
<style type="text/css">
	.st0{clip-path:url(#SVGID_2_);fill:url(#SVGID_3_);}
	.st1{clip-path:url(#SVGID_5_);fill:url(#SVGID_6_);}
	.st2{clip-path:url(#SVGID_8_);fill:url(#SVGID_9_);}
	.st3{clip-path:url(#SVGID_11_);fill:url(#SVGID_12_);}
	.st4{clip-path:url(#SVGID_14_);fill:url(#SVGID_15_);}
	.st5{clip-path:url(#SVGID_17_);fill:url(#SVGID_18_);}
	.st6{clip-path:url(#SVGID_20_);fill:url(#SVGID_21_);}
	.st7{clip-path:url(#SVGID_23_);fill:url(#SVGID_24_);}
	.st8{fill-rule:evenodd;clip-rule:evenodd;fill:#716AC5;}
	.st9{opacity:0.5;}
	.st10{clip-path:url(#SVGID_26_);}
	.st11{clip-path:url(#SVGID_28_);fill:url(#SVGID_29_);}
	.st12{clip-path:url(#SVGID_31_);fill-rule:evenodd;clip-rule:evenodd;fill:#B89DC8;}
	.st13{clip-path:url(#SVGID_33_);fill-rule:evenodd;clip-rule:evenodd;fill:#B89DC8;}
	.st14{clip-path:url(#SVGID_35_);fill-rule:evenodd;clip-rule:evenodd;fill:#B89DC8;}
	.st15{clip-path:url(#SVGID_37_);}
	.st16{clip-path:url(#SVGID_39_);fill:url(#SVGID_40_);}
	.st17{clip-path:url(#SVGID_42_);fill:url(#SVGID_43_);}
	.st18{fill-rule:evenodd;clip-rule:evenodd;fill:#716AB6;}
	.st19{clip-path:url(#SVGID_45_);fill:url(#SVGID_46_);}
	.st20{fill-rule:evenodd;clip-rule:evenodd;fill:#6C52B6;}
	.st21{clip-path:url(#SVGID_48_);fill:url(#SVGID_49_);}
	.st22{clip-path:url(#SVGID_51_);fill:url(#SVGID_52_);}
	.st23{opacity:0.2;}
	.st24{clip-path:url(#SVGID_54_);}
	.st25{clip-path:url(#SVGID_56_);fill:url(#SVGID_57_);}
	.st26{clip-path:url(#SVGID_59_);fill-rule:evenodd;clip-rule:evenodd;fill:#B89DC8;}
	.st27{clip-path:url(#SVGID_61_);fill-rule:evenodd;clip-rule:evenodd;fill:#B89DC8;}
	.st28{clip-path:url(#SVGID_63_);fill:url(#SVGID_64_);}
	.st29{clip-path:url(#SVGID_66_);fill:url(#SVGID_67_);}
	.st30{clip-path:url(#SVGID_69_);fill:url(#SVGID_70_);}
	.st31{clip-path:url(#SVGID_72_);fill:url(#SVGID_73_);}
	.st32{opacity:0.36;}
	.st33{clip-path:url(#SVGID_75_);}
	.st34{clip-path:url(#SVGID_77_);fill:url(#SVGID_78_);}
	.st35{clip-path:url(#SVGID_80_);fill:url(#SVGID_81_);}
	.st36{clip-path:url(#SVGID_83_);fill:url(#SVGID_84_);}
	.st37{clip-path:url(#SVGID_86_);fill:url(#SVGID_87_);}
	.st38{clip-path:url(#SVGID_89_);fill:url(#SVGID_90_);}
	.st39{clip-path:url(#SVGID_92_);fill:url(#SVGID_93_);}
	.st40{clip-path:url(#SVGID_95_);fill:url(#SVGID_96_);}
	.st41{clip-path:url(#SVGID_98_);fill:url(#SVGID_99_);}
	.st42{clip-path:url(#SVGID_101_);fill:url(#SVGID_102_);}
	.st43{clip-path:url(#SVGID_104_);fill:url(#SVGID_105_);}
	.st44{clip-path:url(#SVGID_107_);fill:url(#SVGID_108_);}
	.st45{clip-path:url(#SVGID_110_);fill:url(#SVGID_111_);}
	.st46{clip-path:url(#SVGID_113_);fill:url(#SVGID_114_);}
	.st47{clip-path:url(#SVGID_116_);fill:url(#SVGID_117_);}
	.st48{clip-path:url(#SVGID_119_);fill:url(#SVGID_120_);}
	.st49{clip-path:url(#SVGID_122_);fill:url(#SVGID_123_);}
	.st50{opacity:0.19;}
	.st51{clip-path:url(#SVGID_125_);}
	.st52{clip-path:url(#SVGID_127_);fill:url(#SVGID_128_);}
	.st53{clip-path:url(#SVGID_130_);fill:url(#SVGID_131_);}
	.st54{clip-path:url(#SVGID_133_);fill:url(#SVGID_134_);}
	.st55{clip-path:url(#SVGID_136_);fill:url(#SVGID_137_);}
	.st56{clip-path:url(#SVGID_139_);fill:url(#SVGID_140_);}
	.st57{clip-path:url(#SVGID_142_);fill:url(#SVGID_143_);}
	.st58{clip-path:url(#SVGID_145_);fill:url(#SVGID_146_);}
	.st59{clip-path:url(#SVGID_148_);fill:url(#SVGID_149_);}
	.st60{clip-path:url(#SVGID_151_);fill:url(#SVGID_152_);}
	.st61{clip-path:url(#SVGID_154_);fill:url(#SVGID_155_);}
</style>
<g>
	<defs>
		<path id="SVGID_1_" d="M139.2,254l-1.3,4.6l4.7,4.3l3-3.4c0,0,1.3-2.7-1.1-5.8c0,0-1.5-0.2-2.9-0.2
			C140.6,253.6,139.7,253.7,139.2,254"/>
	</defs>
	<clipPath id="SVGID_2_">
		<use xlink:href="#SVGID_1_"  style="overflow:visible;"/>
	</clipPath>
	
		<linearGradient id="SVGID_3_" gradientUnits="userSpaceOnUse" x1="-28.8854" y1="3090.05" x2="-27.8854" y2="3090.05" gradientTransform="matrix(4.5296 -7.5717 -7.5717 -4.5296 23668.0449 14039.5879)">
		<stop  offset="0" style="stop-color:#37125F"/>
		<stop  offset="0.1053" style="stop-color:#331260"/>
		<stop  offset="0.5764" style="stop-color:#261165"/>
		<stop  offset="1" style="stop-color:#211167"/>
	</linearGradient>
	<polygon class="st0" points="133.8,260.5 140.3,249.7 151.1,256.1 144.6,266.9 	"/>
</g>
<g>
	<defs>
		<path id="SVGID_4_" d="M138,258.7c2.3,2.9,4.7,4.3,4.7,4.3l3-3.4l-5.4-2.4L138,258.7z"/>
	</defs>
	<clipPath id="SVGID_5_">
		<use xlink:href="#SVGID_4_"  style="overflow:visible;"/>
	</clipPath>
	
		<linearGradient id="SVGID_6_" gradientUnits="userSpaceOnUse" x1="-26.606" y1="3030.7136" x2="-25.606" y2="3030.7136" gradientTransform="matrix(6.0723 3.6326 3.6326 -6.0723 -10709.5146 18758.0078)">
		<stop  offset="0" style="stop-color:#12154C"/>
		<stop  offset="1" style="stop-color:#1A0035"/>
	</linearGradient>
	<polygon class="st1" points="140,253.8 148.2,258.7 143.6,266.4 135.4,261.4 	"/>
</g>
<g>
	<defs>
		<path id="SVGID_7_" d="M96.2,27.1C82,33.7,55,58.9,55,58.9l-6.6,13.5c-3.8,1.8-9.2,8.4-9.2,8.4l6.9,6.5l6.5,6.1l3,2.8l3.3,3.1
			l15.4,14.5l7.9,2.6l4.7,1.5l5.8,1.9l5.8,6.6l9.1,10.4l15.6,17.8c6,0.5,18.4,0,18.4,0l12-16.3l1.9-3.5l2.2-4l2.8-5.2l49.8-24.9
			l6.1-3.1c5-2.8,10.8-7.6,15.8-12.2c6.7-6.1,11.9-11.7,11.9-11.7l-2-2.5l-0.6-0.7c0,0,0,0-0.1-0.1l-9-11.2l-9.3-11.6l-13.2-16.5
			l-9.4,1l-2.8-14.5c-3.1-0.1-6.1-0.1-9.1-0.1C138.3,17.6,96.2,27.1,96.2,27.1"/>
	</defs>
	<clipPath id="SVGID_8_">
		<use xlink:href="#SVGID_7_"  style="overflow:visible;"/>
	</clipPath>
	
		<linearGradient id="SVGID_9_" gradientUnits="userSpaceOnUse" x1="8.084591e-02" y1="3070.2104" x2="1.0808" y2="3070.2104" gradientTransform="matrix(0 -137.0826 -137.0826 0 421014.0313 165.7818)">
		<stop  offset="0" style="stop-color:#3B2C83"/>
		<stop  offset="0.2162" style="stop-color:#322279"/>
		<stop  offset="0.6286" style="stop-color:#25156C"/>
		<stop  offset="1" style="stop-color:#211167"/>
	</linearGradient>
	<rect x="39.3" y="17.6" class="st2" width="204.9" height="137.4"/>
</g>
<g>
	<defs>
		<path id="SVGID_10_" d="M55,58.9L49,71l-9.8,9.8l35.1,33l18.4,6l30.5,34.7l8.3-13l-19.1-36.1l2-13.2l-1-6L93.7,69.8l-7.4-36.7
			C79.1,37.7,55,58.9,55,58.9"/>
	</defs>
	<clipPath id="SVGID_11_">
		<use xlink:href="#SVGID_10_"  style="overflow:visible;"/>
	</clipPath>
	
		<linearGradient id="SVGID_12_" gradientUnits="userSpaceOnUse" x1="-3.844236e-02" y1="3070.4973" x2="0.9616" y2="3070.4973" gradientTransform="matrix(0 -121.336 -121.336 0 372647.375 149.8019)">
		<stop  offset="0" style="stop-color:#6F88F9"/>
		<stop  offset="1" style="stop-color:#4C37D8"/>
	</linearGradient>
	<rect x="39.3" y="33.1" class="st3" width="92.3" height="121.3"/>
</g>
<g>
	<defs>
		<path id="SVGID_13_" d="M93.7,69.8L71,86.2c17.8,2.9,42.4,0,42.4,0l54.9-18.6l4.8-7.8L93.7,69.8z"/>
	</defs>
	<clipPath id="SVGID_14_">
		<use xlink:href="#SVGID_13_"  style="overflow:visible;"/>
	</clipPath>
	
		<linearGradient id="SVGID_15_" gradientUnits="userSpaceOnUse" x1="-3.5442" y1="3078.9275" x2="-2.5442" y2="3078.9275" gradientTransform="matrix(0 -27.7279 -27.7279 0 85494.4766 -10.8512)">
		<stop  offset="0" style="stop-color:#23005F"/>
		<stop  offset="1" style="stop-color:#1D0D33"/>
	</linearGradient>
	<rect x="71" y="59.7" class="st4" width="102.2" height="29.3"/>
</g>
<g>
	<defs>
		<polygon id="SVGID_16_" points="158.5,81.8 114.5,92.2 74.3,113.7 94.7,119.8 112.5,105.4 160.5,125.5 216.4,97.5 244.1,73.6 		
			"/>
	</defs>
	<clipPath id="SVGID_17_">
		<use xlink:href="#SVGID_16_"  style="overflow:visible;"/>
	</clipPath>
	
		<linearGradient id="SVGID_18_" gradientUnits="userSpaceOnUse" x1="-0.7845" y1="3067.2578" x2="0.2155" y2="3067.2578" gradientTransform="matrix(169.7933 0 0 -169.7933 207.5528 520899.3125)">
		<stop  offset="0" style="stop-color:#23005F"/>
		<stop  offset="1" style="stop-color:#1D0D33"/>
	</linearGradient>
	<rect x="74.3" y="73.6" class="st5" width="169.8" height="51.9"/>
</g>
<g>
	<defs>
		<path id="SVGID_19_" d="M131.5,141.5l-8.3,13h18.4c5.1-4.1,11.9-16.3,11.9-16.3L131.5,141.5z"/>
	</defs>
	<clipPath id="SVGID_20_">
		<use xlink:href="#SVGID_19_"  style="overflow:visible;"/>
	</clipPath>
	
		<linearGradient id="SVGID_21_" gradientUnits="userSpaceOnUse" x1="-6.7455" y1="3086.626" x2="-5.7455" y2="3086.626" gradientTransform="matrix(0 -16.2676 -16.2676 0 50350.3164 44.7334)">
		<stop  offset="0" style="stop-color:#23005F"/>
		<stop  offset="1" style="stop-color:#1D0D33"/>
	</linearGradient>
	<rect x="123.3" y="138.2" class="st6" width="30.4" height="16.3"/>
</g>
<g>
	<defs>
		<polygon id="SVGID_22_" points="173.2,59.7 168.4,67.5 200.7,32.2 197.9,17.7 		"/>
	</defs>
	<clipPath id="SVGID_23_">
		<use xlink:href="#SVGID_22_"  style="overflow:visible;"/>
	</clipPath>
	
		<linearGradient id="SVGID_24_" gradientUnits="userSpaceOnUse" x1="-1.5291" y1="3074.082" x2="-0.5292" y2="3074.082" gradientTransform="matrix(0 -49.8195 -49.8195 0 153333.7656 -8.6449)">
		<stop  offset="0" style="stop-color:#05003F"/>
		<stop  offset="1" style="stop-color:#1D0D33"/>
	</linearGradient>
	<rect x="168.4" y="17.7" class="st7" width="32.3" height="49.8"/>
</g>
<g>
	<polygon class="st8" points="91.2,71.6 93,66.5 102.1,69 	"/>
	<polygon class="st8" points="129.9,138.4 128.5,147.2 134.4,141.1 	"/>
	<g class="st9">
		<g>
			<defs>
				<rect id="SVGID_25_" x="71" y="67.5" width="97.4" height="24.6"/>
			</defs>
			<clipPath id="SVGID_26_">
				<use xlink:href="#SVGID_25_"  style="overflow:visible;"/>
			</clipPath>
			<g class="st10">
				<defs>
					<polygon id="SVGID_27_" points="71,86.2 114.5,92.2 158.5,81.8 168.4,67.5 113.5,86.2 					"/>
				</defs>
				<clipPath id="SVGID_28_">
					<use xlink:href="#SVGID_27_"  style="overflow:visible;"/>
				</clipPath>
				
					<linearGradient id="SVGID_29_" gradientUnits="userSpaceOnUse" x1="-2.1124" y1="3066.7058" x2="-1.1124" y2="3066.7058" gradientTransform="matrix(97.3515 0 0 -97.3515 276.6903 298628.375)">
					<stop  offset="0" style="stop-color:#A77BB8"/>
					<stop  offset="1" style="stop-color:#3E1A8C"/>
				</linearGradient>
				<rect x="71" y="67.5" class="st11" width="97.4" height="24.7"/>
			</g>
		</g>
	</g>
	<g>
		<g>
			<defs>
				<rect id="SVGID_30_" x="46.2" y="30.7" width="186.4" height="62.7"/>
			</defs>
			<clipPath id="SVGID_31_">
				<use xlink:href="#SVGID_30_"  style="overflow:visible;"/>
			</clipPath>
			<path class="st12" d="M232.6,59.3c-1.8-0.6-3.6-1.8-5.1-2.8c-9.5-6.7-20.3-11.5-31.5-14.5c-2.8-0.7-5.6-1.4-8.1-2.9
				c-1.1-0.6-2.1-1.5-3.3-1.8c-1.4-0.4-2.9-0.1-4.3,0.1c-27.4,4.5-56.6-0.8-82.3,9.8c-3,1.2-5.9,2.7-8.4,4.8
				c-4.5,3.8-7,9.5-11.1,13.7c-3.5,3.6-7.9,6-11.9,9.1c-5.2,4.1-10.4,9.7-13,15.9c-0.2,0.5-0.6,1.5-0.9,2.7l-6.5-6.1
				c9.8-9.3,21.4-16.6,29.9-27.1c5-6.1,9.4-12.9,16.1-17.1c5.6-3.6,12.3-5,18.8-6.1c23.4-4,47.2-5.1,70.9-6.1c2.5-0.1,5-0.2,7.4,0.3
				c1.9,0.4,3.7,1.1,5.5,1.8c9.9,4.1,19.4,9.1,28.5,14.8L232.6,59.3z"/>
		</g>
	</g>
	<g>
		<g>
			<defs>
				<rect id="SVGID_32_" x="55.7" y="45.5" width="187.2" height="53.8"/>
			</defs>
			<clipPath id="SVGID_33_">
				<use xlink:href="#SVGID_32_"  style="overflow:visible;"/>
			</clipPath>
			<path class="st13" d="M242.9,72.7c-16.8-1.1-31.7-10.5-47.7-15.7c-27.3-8.9-57-4.9-85.5-0.9c-4.4,0.6-8.8,1.3-12.9,3.1
				c-4.7,2.1-8.6,5.7-12.3,9.4C81.8,71.3,67.2,90,59,99.3l-3.3-3.1c2.7-1.7,5.4-4.4,7.9-7.2c7.6-8.5,15.8-16.8,23-25.7
				c1.9-2.1,3.8-4.2,6.3-5.6c2-1.1,4.2-1.6,6.4-2.1c24.9-5.4,50.2-8.8,75.6-10.2c1.6-0.1,3.3-0.1,4.6,0.9c1.2,0.9,1.7,2.5,2.6,3.6
				c2.7,3.1,7.6,1.6,11.6,1.8c5.4,0.2,10.1,3.6,14.8,6.3c7.7,4.6,16.2,7.7,25.1,9.2c2.8,0.5,6.2,1.2,8,3.1c0,0,0,0,0.1,0.1l0.6,0.7
				C242.5,71.6,242.7,72.2,242.9,72.7"/>
		</g>
	</g>
	<g>
		<g>
			<defs>
				<rect id="SVGID_34_" x="98.5" y="118.2" width="59.2" height="18.5"/>
			</defs>
			<clipPath id="SVGID_35_">
				<use xlink:href="#SVGID_34_"  style="overflow:visible;"/>
			</clipPath>
			<path class="st14" d="M157.7,130.6l-2.2,4c-8.6-5.1-18.1-8.4-28-9.7c-3.1-0.4-6.3-0.6-9.1,0.7c-2.1,1-3.8,2.8-5.3,4.5
				c-1.9,2.1-3.7,4.3-5.5,6.5l-9.1-10.4c6.2-3.4,13.4-7.9,20.1-8.1c2.2-0.1,4.4,0.4,6.6,0.9c6.5,1.4,13,2.8,19.5,4.1
				c3.5,0.7,7.1,1.6,10,3.7C155.9,127.9,157,129.2,157.7,130.6"/>
		</g>
	</g>
	<g class="st9">
		<g>
			<defs>
				<rect id="SVGID_36_" x="82.3" y="85.3" width="150" height="32.6"/>
			</defs>
			<clipPath id="SVGID_37_">
				<use xlink:href="#SVGID_36_"  style="overflow:visible;"/>
			</clipPath>
			<g class="st15">
				<defs>
					<path id="SVGID_38_" d="M232.3,85.3c-5,4.6-10.8,9.4-15.8,12.2l-6.1,3.1c-7-5.5-17.2-5.3-26.3-4.8c-9.9,0.6-19.9,1.2-29.8,1.8
						c-14,0.8-28.1,1.7-41.5,5.8c-10,3-18.6,7.8-25.9,14.5l-4.7-1.5c5.5-3.9,13.3-7.4,15.4-8.6c7.6-4.4,15.2-8.8,23.6-11.4
						c14.1-4.3,29.2-3,43.9-3.9C187.6,91.1,209.9,84.7,232.3,85.3"/>
				</defs>
				<clipPath id="SVGID_39_">
					<use xlink:href="#SVGID_38_"  style="overflow:visible;"/>
				</clipPath>
				
					<linearGradient id="SVGID_40_" gradientUnits="userSpaceOnUse" x1="-1.02" y1="3067.1621" x2="-2.001438e-02" y2="3067.1621" gradientTransform="matrix(149.999 0 0 -149.999 235.2631 460172.5)">
					<stop  offset="0" style="stop-color:#8E7BFA"/>
					<stop  offset="1" style="stop-color:#3E1AB0"/>
				</linearGradient>
				<rect x="82.3" y="84.7" class="st16" width="150" height="33.2"/>
			</g>
		</g>
	</g>
</g>
<g>
	<defs>
		<polygon id="SVGID_41_" points="192.1,33.1 184.7,34.4 128.1,50.4 102.1,47.5 91,56.7 57.4,67.3 55,58.9 48.4,72.4 57.6,69.6 
			91.2,58.8 105.4,54.4 130.2,51.5 189.7,36.4 210.1,31.2 200.7,32.2 197.9,17.7 		"/>
	</defs>
	<clipPath id="SVGID_42_">
		<use xlink:href="#SVGID_41_"  style="overflow:visible;"/>
	</clipPath>
	
		<linearGradient id="SVGID_43_" gradientUnits="userSpaceOnUse" x1="-0.8743" y1="3067.2207" x2="0.1257" y2="3067.2207" gradientTransform="matrix(161.6594 0 0 -161.6594 189.7545 495890)">
		<stop  offset="0" style="stop-color:#05003F"/>
		<stop  offset="1" style="stop-color:#1D0D33"/>
	</linearGradient>
	<rect x="48.4" y="17.7" class="st17" width="161.7" height="54.6"/>
</g>
<g>
	<polygon class="st18" points="200.7,32.2 190.2,35.3 139.4,48.6 130.2,51.5 105.4,54.4 91.2,58.8 55.7,69.6 48.4,72.4 43.8,76.2 
		87.7,62 91.2,59.7 106,56.1 122.1,53.3 132.9,54.8 150.4,47.2 191,37.5 210.1,31.2 	"/>
</g>
<g>
	<defs>
		<polygon id="SVGID_44_" points="192.5,78.5 204.8,79.1 218.6,76.1 210,73.6 		"/>
	</defs>
	<clipPath id="SVGID_45_">
		<use xlink:href="#SVGID_44_"  style="overflow:visible;"/>
	</clipPath>
	
		<linearGradient id="SVGID_46_" gradientUnits="userSpaceOnUse" x1="-22.0268" y1="3123.3743" x2="-21.027" y2="3123.3743" gradientTransform="matrix(0 -5.4718 -5.4718 0 17296.2051 -41.4202)">
		<stop  offset="0" style="stop-color:#05003F"/>
		<stop  offset="1" style="stop-color:#1D0D33"/>
	</linearGradient>
	<rect x="192.5" y="73.6" class="st19" width="26.1" height="5.5"/>
</g>
<g>
	<polygon class="st20" points="192.5,78.5 205.6,77.3 218.6,76.1 204.8,80.1 	"/>
</g>
<g>
	<defs>
		<path id="SVGID_47_" d="M62.9,215l-3-4.1l-21,9.3l-6.3,12.9l9.9,21.9l6.1,13.6l3.9,8.7l3.2,6.9L69.7,315l11.4-7.9v-13.9l25.6-14.7
			l5.3-16.9l0.2-0.6c0,0-0.2-1.3-0.5-3.5c-0.3-1.7-0.7-3.9-1.2-6.5c-1.1-5.2-2.8-12-5.3-19c-2.6-7.3-6-14.7-10.4-21L62.9,215z"/>
	</defs>
	<clipPath id="SVGID_48_">
		<use xlink:href="#SVGID_47_"  style="overflow:visible;"/>
	</clipPath>
	
		<linearGradient id="SVGID_49_" gradientUnits="userSpaceOnUse" x1="-0.2106" y1="3070.9111" x2="0.7894" y2="3070.9111" gradientTransform="matrix(0 -104.0845 -104.0845 0 319706.6875 293.0711)">
		<stop  offset="0" style="stop-color:#3B2C83"/>
		<stop  offset="0.2162" style="stop-color:#322279"/>
		<stop  offset="0.6286" style="stop-color:#25156C"/>
		<stop  offset="1" style="stop-color:#211167"/>
	</linearGradient>
	<rect x="32.6" y="210.9" class="st21" width="79.6" height="104.1"/>
</g>
<g>
	<defs>
		<path id="SVGID_50_" d="M32.6,233.1l37,81.9l11.4-7.9v-13.9l25.6-14.7l5.4-17.6C99,265.8,80,279.7,80,279.7l-1,11.6l-5.5-0.1
			l-8.6,5.5L55,270.8l-16.1-50.7L32.6,233.1z"/>
	</defs>
	<clipPath id="SVGID_51_">
		<use xlink:href="#SVGID_50_"  style="overflow:visible;"/>
	</clipPath>
	
		<linearGradient id="SVGID_52_" gradientUnits="userSpaceOnUse" x1="-2.8087" y1="3066.4163" x2="-1.8087" y2="3066.4163" gradientTransform="matrix(79.5547 0 0 -79.5547 256.0764 244215.4219)">
		<stop  offset="0" style="stop-color:#05003F"/>
		<stop  offset="1" style="stop-color:#1D0D33"/>
	</linearGradient>
	<rect x="32.6" y="220.2" class="st22" width="79.6" height="94.8"/>
</g>
<g>
	<g class="st23">
		<g>
			<defs>
				<rect id="SVGID_53_" x="62.9" y="210.9" width="49.3" height="68.8"/>
			</defs>
			<clipPath id="SVGID_54_">
				<use xlink:href="#SVGID_53_"  style="overflow:visible;"/>
			</clipPath>
			<g class="st24">
				<defs>
					<path id="SVGID_55_" d="M62.9,215L80,279.7l32.2-18.8c0,0-5-36.2-17.4-50L62.9,215z"/>
				</defs>
				<clipPath id="SVGID_56_">
					<use xlink:href="#SVGID_55_"  style="overflow:visible;"/>
				</clipPath>
				
					<linearGradient id="SVGID_57_" gradientUnits="userSpaceOnUse" x1="-5.144" y1="3065.4451" x2="-4.144" y2="3065.4451" gradientTransform="matrix(49.316 0 0 -49.316 316.5539 151420.8438)">
					<stop  offset="0" style="stop-color:#8E7BFA"/>
					<stop  offset="1" style="stop-color:#3E1AB0"/>
				</linearGradient>
				<rect x="62.9" y="210.9" class="st25" width="49.3" height="68.8"/>
			</g>
		</g>
	</g>
	<g>
		<g>
			<defs>
				<rect id="SVGID_58_" x="42.5" y="231.9" width="67.9" height="36.7"/>
			</defs>
			<clipPath id="SVGID_59_">
				<use xlink:href="#SVGID_58_"  style="overflow:visible;"/>
			</clipPath>
			<path class="st26" d="M110.4,250.9c-1.9,0.1-3.8,0.3-5.7,0.4C94,252,83.2,252.8,72.7,255c-2.1,0.4-4.2,1-6.3,1.6
				c-6.8,2.3-13,6.4-17.7,11.9L42.5,255c0.6-2.4,1.8-5,3.4-6.5c1.4-1.3,3.3-1.8,5.1-2.3c18-4.8,36.1-9.5,54.1-14.3
				C107.6,238.9,109.3,245.6,110.4,250.9"/>
		</g>
	</g>
	<g>
		<g>
			<defs>
				<rect id="SVGID_60_" x="52.6" y="257.4" width="59.6" height="26.8"/>
			</defs>
			<clipPath id="SVGID_61_">
				<use xlink:href="#SVGID_60_"  style="overflow:visible;"/>
			</clipPath>
			<path class="st27" d="M112.2,260.9l-0.2,0.6c-4.1,0.1-8.2,0.4-12.3,0.8c-7.9,0.9-15.8,2.4-23.1,5.5c-8.2,3.6-15.4,9.2-20.8,16.3
				l-3.2-6.9c2.5-3.5,6.3-6.5,9.6-8.6c4.5-2.8,9.5-4.6,14.6-6.1c11.3-3.3,23.1-5,34.8-5.2C112,259.6,112.2,260.9,112.2,260.9"/>
		</g>
	</g>
</g>
<g>
	<defs>
		<path id="SVGID_62_" d="M8.6,222.7l-1.4,5.1l5.1,4.7l3.3-3.7c0,0,1.4-2.9-1.2-6.3c0,0-1.6-0.2-3.2-0.2
			C10.2,222.3,9.1,222.4,8.6,222.7"/>
	</defs>
	<clipPath id="SVGID_63_">
		<use xlink:href="#SVGID_62_"  style="overflow:visible;"/>
	</clipPath>
	
		<linearGradient id="SVGID_64_" gradientUnits="userSpaceOnUse" x1="-26.4606" y1="3088.2537" x2="-25.4606" y2="3088.2537" gradientTransform="matrix(4.9296 -8.2402 -8.2402 -4.9296 25588.3809 15236.6904)">
		<stop  offset="0" style="stop-color:#37125F"/>
		<stop  offset="0.1053" style="stop-color:#331260"/>
		<stop  offset="0.5764" style="stop-color:#261165"/>
		<stop  offset="1" style="stop-color:#211167"/>
	</linearGradient>
	<polygon class="st28" points="2.8,229.8 9.9,218 21.5,225 14.5,236.7 	"/>
</g>
<g>
	<defs>
		<path id="SVGID_65_" d="M7.3,227.8c2.5,3.1,5.1,4.7,5.1,4.7l3.3-3.7l-5.9-2.6L7.3,227.8z"/>
	</defs>
	<clipPath id="SVGID_66_">
		<use xlink:href="#SVGID_65_"  style="overflow:visible;"/>
	</clipPath>
	
		<linearGradient id="SVGID_67_" gradientUnits="userSpaceOnUse" x1="-24.3661" y1="3033.7373" x2="-23.3661" y2="3033.7373" gradientTransform="matrix(6.6085 3.9534 3.9534 -6.6085 -11824.7979 20371.7598)">
		<stop  offset="0" style="stop-color:#12154C"/>
		<stop  offset="1" style="stop-color:#1A0035"/>
	</linearGradient>
	<polygon class="st29" points="9.5,222.4 18.4,227.8 13.4,236.1 4.5,230.8 	"/>
</g>
<g>
	<defs>
		<path id="SVGID_68_" d="M103,180.9l-0.1,1.7c-1.7,0.6-5.3,2.1-5.3,2.1l-0.3,8l4.3,1.2l2,2.2l5.9-1.6l1.9-7.4l2-5.6l-2.5-2.8
			L103,180.9z"/>
	</defs>
	<clipPath id="SVGID_69_">
		<use xlink:href="#SVGID_68_"  style="overflow:visible;"/>
	</clipPath>
	
		<linearGradient id="SVGID_70_" gradientUnits="userSpaceOnUse" x1="-6.827" y1="3084.9268" x2="-5.827" y2="3084.9268" gradientTransform="matrix(0.6863 -17.5824 -17.5824 -0.6863 54350.2539 2193.3254)">
		<stop  offset="0" style="stop-color:#3B2C83"/>
		<stop  offset="0.2162" style="stop-color:#322279"/>
		<stop  offset="0.6286" style="stop-color:#25156C"/>
		<stop  offset="1" style="stop-color:#211167"/>
	</linearGradient>
	<polygon class="st30" points="96.6,196.2 97.3,178.3 114.2,178.9 113.5,196.9 	"/>
</g>
<g>
	<defs>
		<polygon id="SVGID_71_" points="97.3,192.5 97.3,192.8 101.6,194 103.7,196.2 109.6,194.6 108.3,191.8 102.3,193.5 101.8,191.2 		
			"/>
	</defs>
	<clipPath id="SVGID_72_">
		<use xlink:href="#SVGID_71_"  style="overflow:visible;"/>
	</clipPath>
	
		<linearGradient id="SVGID_73_" gradientUnits="userSpaceOnUse" x1="-23.6203" y1="3057.762" x2="-22.6203" y2="3057.762" gradientTransform="matrix(12.3069 0 0 -12.3069 387.9991 37825.375)">
		<stop  offset="0" style="stop-color:#05003F"/>
		<stop  offset="1" style="stop-color:#1D0D33"/>
	</linearGradient>
	<rect x="97.3" y="191.2" class="st31" width="12.3" height="5.1"/>
</g>
<g>
	<g class="st32">
		<g>
			<defs>
				<rect id="SVGID_74_" x="97.3" y="182.6" width="5.6" height="9.8"/>
			</defs>
			<clipPath id="SVGID_75_">
				<use xlink:href="#SVGID_74_"  style="overflow:visible;"/>
			</clipPath>
			<g class="st33">
				<defs>
					<polygon id="SVGID_76_" points="102.9,182.6 101.8,191.2 97.3,192.5 97.6,184.8 					"/>
				</defs>
				<clipPath id="SVGID_77_">
					<use xlink:href="#SVGID_76_"  style="overflow:visible;"/>
				</clipPath>
				
					<linearGradient id="SVGID_78_" gradientUnits="userSpaceOnUse" x1="-52.8658" y1="3045.6003" x2="-51.8658" y2="3045.6003" gradientTransform="matrix(5.6251 0 0 -5.6251 394.681 17319.3496)">
					<stop  offset="0" style="stop-color:#8E7BFA"/>
					<stop  offset="1" style="stop-color:#3E1AB0"/>
				</linearGradient>
				<rect x="97.3" y="182.6" class="st34" width="5.6" height="9.8"/>
			</g>
		</g>
	</g>
</g>
<g>
	<defs>
		<polygon id="SVGID_79_" points="108.3,184.5 108.3,191.8 109.6,194.6 111.1,188.8 113.5,181.7 111.1,178.9 		"/>
	</defs>
	<clipPath id="SVGID_80_">
		<use xlink:href="#SVGID_79_"  style="overflow:visible;"/>
	</clipPath>
	
		<linearGradient id="SVGID_81_" gradientUnits="userSpaceOnUse" x1="-7.0062" y1="3087.2532" x2="-6.0063" y2="3087.2532" gradientTransform="matrix(0 -15.7376 -15.7376 0 48696.9141 84.3873)">
		<stop  offset="0" style="stop-color:#6F88F9"/>
		<stop  offset="1" style="stop-color:#4C37D8"/>
	</linearGradient>
	<rect x="108.3" y="178.9" class="st35" width="5.2" height="15.7"/>
</g>
<g>
	<defs>
		<path id="SVGID_82_" d="M66.6,159v6.8l3.8,2.4l3.7-2.4l1.7-6.8l-1.7-1.5c0,0-0.1,0-0.3,0C72.8,157.5,69.8,157.6,66.6,159"/>
	</defs>
	<clipPath id="SVGID_83_">
		<use xlink:href="#SVGID_82_"  style="overflow:visible;"/>
	</clipPath>
	
		<linearGradient id="SVGID_84_" gradientUnits="userSpaceOnUse" x1="-10.8446" y1="3096.4834" x2="-9.8446" y2="3096.4834" gradientTransform="matrix(0 -10.6378 -10.6378 0 33010.9141 52.7943)">
		<stop  offset="0" style="stop-color:#37125F"/>
		<stop  offset="0.1053" style="stop-color:#331260"/>
		<stop  offset="0.5764" style="stop-color:#261165"/>
		<stop  offset="1" style="stop-color:#211167"/>
	</linearGradient>
	<rect x="66.6" y="157.5" class="st36" width="9.1" height="10.6"/>
</g>
<g>
	<defs>
		<polygon id="SVGID_85_" points="66.6,165.7 70.4,168.2 74.1,165.7 72.2,164.5 		"/>
	</defs>
	<clipPath id="SVGID_86_">
		<use xlink:href="#SVGID_85_"  style="overflow:visible;"/>
	</clipPath>
	
		<linearGradient id="SVGID_87_" gradientUnits="userSpaceOnUse" x1="-39.6503" y1="3051.0959" x2="-38.6503" y2="3051.0959" gradientTransform="matrix(7.4538 0 0 -7.4538 362.1961 22908.748)">
		<stop  offset="0" style="stop-color:#12154C"/>
		<stop  offset="1" style="stop-color:#1A0035"/>
	</linearGradient>
	<rect x="66.6" y="164.5" class="st37" width="7.5" height="3.6"/>
</g>
<g>
	<defs>
		<polygon id="SVGID_88_" points="72.2,164.5 74.1,165.7 75.8,159 74.1,157.5 		"/>
	</defs>
	<clipPath id="SVGID_89_">
		<use xlink:href="#SVGID_88_"  style="overflow:visible;"/>
	</clipPath>
	
		<linearGradient id="SVGID_90_" gradientUnits="userSpaceOnUse" x1="-14.3302" y1="3104.8655" x2="-13.3302" y2="3104.8655" gradientTransform="matrix(0 -8.2191 -8.2191 0 25593.1641 47.9625)">
		<stop  offset="0" style="stop-color:#6F88F9"/>
		<stop  offset="1" style="stop-color:#4C37D8"/>
	</linearGradient>
	<rect x="72.2" y="157.5" class="st38" width="3.6" height="8.2"/>
</g>
<g>
	<defs>
		<path id="SVGID_91_" d="M70,325.5v12.2l6.8,4.3l6.6-4.3l3-12.2l-3-2.6c0,0-0.2,0-0.6,0C81.1,322.9,75.7,323.1,70,325.5"/>
	</defs>
	<clipPath id="SVGID_92_">
		<use xlink:href="#SVGID_91_"  style="overflow:visible;"/>
	</clipPath>
	
		<linearGradient id="SVGID_93_" gradientUnits="userSpaceOnUse" x1="-5.5704" y1="3083.8003" x2="-4.5704" y2="3083.8003" gradientTransform="matrix(0 -19.1768 -19.1768 0 59215.6211 235.2515)">
		<stop  offset="0" style="stop-color:#37125F"/>
		<stop  offset="0.1053" style="stop-color:#331260"/>
		<stop  offset="0.5764" style="stop-color:#261165"/>
		<stop  offset="1" style="stop-color:#211167"/>
	</linearGradient>
	<rect x="70" y="322.9" class="st39" width="16.4" height="19.2"/>
</g>
<g>
	<defs>
		<polygon id="SVGID_94_" points="70,337.7 76.8,342.1 83.4,337.7 79.9,335.6 		"/>
	</defs>
	<clipPath id="SVGID_95_">
		<use xlink:href="#SVGID_94_"  style="overflow:visible;"/>
	</clipPath>
	
		<linearGradient id="SVGID_96_" gradientUnits="userSpaceOnUse" x1="-21.5498" y1="3058.6228" x2="-20.5498" y2="3058.6228" gradientTransform="matrix(13.4369 0 0 -13.4369 359.5485 41437.1914)">
		<stop  offset="0" style="stop-color:#12154C"/>
		<stop  offset="1" style="stop-color:#1A0035"/>
	</linearGradient>
	<rect x="70" y="335.6" class="st40" width="13.4" height="6.5"/>
</g>
<g>
	<defs>
		<polygon id="SVGID_97_" points="79.9,335.6 83.4,337.7 86.4,325.5 83.4,322.9 		"/>
	</defs>
	<clipPath id="SVGID_98_">
		<use xlink:href="#SVGID_97_"  style="overflow:visible;"/>
	</clipPath>
	
		<linearGradient id="SVGID_99_" gradientUnits="userSpaceOnUse" x1="-7.5039" y1="3088.45" x2="-6.504" y2="3088.45" gradientTransform="matrix(0 -14.8167 -14.8167 0 45843.7773 226.5418)">
		<stop  offset="0" style="stop-color:#6F88F9"/>
		<stop  offset="1" style="stop-color:#4C37D8"/>
	</linearGradient>
	<rect x="79.9" y="322.9" class="st41" width="6.5" height="14.8"/>
</g>
<g>
	<defs>
		<path id="SVGID_100_" d="M160.6,307v6.8l3.8,2.4l3.7-2.4l1.7-6.8l-1.7-1.5c0,0-0.1,0-0.3,0C166.7,305.5,163.7,305.6,160.6,307"/>
	</defs>
	<clipPath id="SVGID_101_">
		<use xlink:href="#SVGID_100_"  style="overflow:visible;"/>
	</clipPath>
	
		<linearGradient id="SVGID_102_" gradientUnits="userSpaceOnUse" x1="-10.8446" y1="3096.4834" x2="-9.8445" y2="3096.4834" gradientTransform="matrix(0 -10.6378 -10.6378 0 33104.832 200.7794)">
		<stop  offset="0" style="stop-color:#37125F"/>
		<stop  offset="0.1053" style="stop-color:#331260"/>
		<stop  offset="0.5764" style="stop-color:#261165"/>
		<stop  offset="1" style="stop-color:#211167"/>
	</linearGradient>
	<rect x="160.6" y="305.5" class="st42" width="9.1" height="10.6"/>
</g>
<g>
	<defs>
		<polygon id="SVGID_103_" points="160.6,313.7 164.3,316.1 168,313.7 166.1,312.5 		"/>
	</defs>
	<clipPath id="SVGID_104_">
		<use xlink:href="#SVGID_103_"  style="overflow:visible;"/>
	</clipPath>
	
		<linearGradient id="SVGID_105_" gradientUnits="userSpaceOnUse" x1="-39.6502" y1="3051.0959" x2="-38.6501" y2="3051.0959" gradientTransform="matrix(7.4538 0 0 -7.4538 456.1172 23056.7324)">
		<stop  offset="0" style="stop-color:#12154C"/>
		<stop  offset="1" style="stop-color:#1A0035"/>
	</linearGradient>
	<rect x="160.6" y="312.5" class="st43" width="7.5" height="3.6"/>
</g>
<g>
	<defs>
		<polygon id="SVGID_106_" points="166.1,312.5 168,313.7 169.7,307 168,305.5 		"/>
	</defs>
	<clipPath id="SVGID_107_">
		<use xlink:href="#SVGID_106_"  style="overflow:visible;"/>
	</clipPath>
	
		<linearGradient id="SVGID_108_" gradientUnits="userSpaceOnUse" x1="-14.3302" y1="3104.8652" x2="-13.3301" y2="3104.8652" gradientTransform="matrix(0 -8.2191 -8.2191 0 25687.084 195.9479)">
		<stop  offset="0" style="stop-color:#6F88F9"/>
		<stop  offset="1" style="stop-color:#4C37D8"/>
	</linearGradient>
	<rect x="166.1" y="305.5" class="st44" width="3.6" height="8.2"/>
</g>
<g>
	<defs>
		<path id="SVGID_109_" d="M149.9,406.4l3,10.7l14.3,3l2-10.3c0,0-0.6-6.8-9-10.1C160.2,399.7,151.4,403.5,149.9,406.4"/>
	</defs>
	<clipPath id="SVGID_110_">
		<use xlink:href="#SVGID_109_"  style="overflow:visible;"/>
	</clipPath>
	
		<linearGradient id="SVGID_111_" gradientUnits="userSpaceOnUse" x1="-5.2042" y1="3082.9194" x2="-4.2042" y2="3082.9194" gradientTransform="matrix(0 -20.309 -20.309 0 62770.6289 314.3454)">
		<stop  offset="0" style="stop-color:#3B2C83"/>
		<stop  offset="0.2162" style="stop-color:#322279"/>
		<stop  offset="0.6286" style="stop-color:#25156C"/>
		<stop  offset="1" style="stop-color:#211167"/>
	</linearGradient>
	<rect x="149.9" y="399.7" class="st45" width="19.3" height="20.3"/>
</g>
<g>
	<defs>
		<path id="SVGID_112_" d="M155.7,411.4L153,417c7.9,2.9,14.3,3,14.3,3l2-10.3L155.7,411.4z"/>
	</defs>
	<clipPath id="SVGID_113_">
		<use xlink:href="#SVGID_112_"  style="overflow:visible;"/>
	</clipPath>
	
		<linearGradient id="SVGID_114_" gradientUnits="userSpaceOnUse" x1="-17.6032" y1="3060.2639" x2="-16.6033" y2="3060.2639" gradientTransform="matrix(16.2875 0 0 -16.2875 439.6752 50258.8672)">
		<stop  offset="0" style="stop-color:#12154C"/>
		<stop  offset="1" style="stop-color:#1A0035"/>
	</linearGradient>
	<rect x="153" y="409.8" class="st46" width="16.3" height="10.3"/>
</g>
<g>
	<defs>
		<polygon id="SVGID_115_" points="177.7,203.9 175.5,228.6 189.2,237.1 193.3,233.8 204.1,203.9 197.4,198.7 		"/>
	</defs>
	<clipPath id="SVGID_116_">
		<use xlink:href="#SVGID_115_"  style="overflow:visible;"/>
	</clipPath>
	
		<linearGradient id="SVGID_117_" gradientUnits="userSpaceOnUse" x1="-2.2831" y1="3075.895" x2="-1.2831" y2="3075.895" gradientTransform="matrix(0 -38.3786 -38.3786 0 118238.4063 149.4924)">
		<stop  offset="0" style="stop-color:#37125F"/>
		<stop  offset="0.1053" style="stop-color:#331260"/>
		<stop  offset="0.5764" style="stop-color:#261165"/>
		<stop  offset="1" style="stop-color:#211167"/>
	</linearGradient>
	<rect x="175.5" y="198.7" class="st47" width="28.6" height="38.4"/>
</g>
<g>
	<defs>
		<polygon id="SVGID_118_" points="175.5,228.6 189.2,237.1 193.3,233.8 192.4,224.4 		"/>
	</defs>
	<clipPath id="SVGID_119_">
		<use xlink:href="#SVGID_118_"  style="overflow:visible;"/>
	</clipPath>
	
		<linearGradient id="SVGID_120_" gradientUnits="userSpaceOnUse" x1="-15.9676" y1="3060.9441" x2="-14.9675" y2="3060.9441" gradientTransform="matrix(17.8576 0 0 -17.8576 460.5988 54892.0156)">
		<stop  offset="0" style="stop-color:#12154C"/>
		<stop  offset="1" style="stop-color:#1A0035"/>
	</linearGradient>
	<rect x="175.5" y="224.4" class="st48" width="17.9" height="12.7"/>
</g>
<g>
	<defs>
		<polygon id="SVGID_121_" points="192.4,224.4 193.3,233.8 204.1,203.9 197.4,198.7 		"/>
	</defs>
	<clipPath id="SVGID_122_">
		<use xlink:href="#SVGID_121_"  style="overflow:visible;"/>
	</clipPath>
	
		<linearGradient id="SVGID_123_" gradientUnits="userSpaceOnUse" x1="-2.5902" y1="3076.6338" x2="-1.5903" y2="3076.6338" gradientTransform="matrix(0 -35.0952 -35.0952 0 108173.3281 142.9255)">
		<stop  offset="0" style="stop-color:#6F88F9"/>
		<stop  offset="1" style="stop-color:#4C37D8"/>
	</linearGradient>
	<rect x="192.4" y="198.7" class="st49" width="11.7" height="35.1"/>
</g>
<g>
	<g class="st50">
		<g>
			<defs>
				<rect id="SVGID_124_" x="7.3" y="17.6" width="242.7" height="402.4"/>
			</defs>
			<clipPath id="SVGID_125_">
				<use xlink:href="#SVGID_124_"  style="overflow:visible;"/>
			</clipPath>
			<g class="st51">
				<defs>
					<path id="SVGID_126_" d="M244.1,73.6l-2-2.5l-0.6-0.7c0,0,0,0-0.1-0.1l-9-11.2l-9.3-11.6l-13.2-16.5l-9.4,1l-1.1-5.5l-1.7-9
						l0,0l0,0c-54.4-1.3-101.7,9.4-101.7,9.4c-3,1.4-6.5,3.6-10.2,6.1c-1,0.6-2.2,1.5-3.6,2.6c-12.6,9.4-26.1,21.8-27.3,22.9
						c-0.1,0.1-0.1,0.1-0.1,0.1L49,71l-2.7,2.7c-3.4,2.6-7.1,7.1-7.1,7.1l0,0l0,0l6.9,6.5l6.5,6.1l3,2.8l2,1.9l16.6,15.7l13.6,4.4
						l4.9,1.6l1.3,1.5l7.1,8.1l6.4,7.3l15.6,17.8c6,0.5,18.4,0,18.4,0l0,0h0c5.1-4,11.9-16.1,11.9-16.3l0,0l1.9-3.5l2.2-4l2.8-5.2
						l49.8-24.9l6.1-3.1c5-2.8,10.8-7.6,15.8-12.2C238.9,79.3,244.1,73.6,244.1,73.6"/>
				</defs>
				<clipPath id="SVGID_127_">
					<use xlink:href="#SVGID_126_"  style="overflow:visible;"/>
				</clipPath>
				
					<linearGradient id="SVGID_128_" gradientUnits="userSpaceOnUse" x1="8.084550e-02" y1="3070.2104" x2="1.0808" y2="3070.2104" gradientTransform="matrix(0 -137.0825 -137.0825 0 421013.8438 165.7817)">
					<stop  offset="0" style="stop-color:#6F88F9"/>
					<stop  offset="1" style="stop-color:#4C37D8"/>
				</linearGradient>
				<rect x="39.3" y="16.4" class="st52" width="204.9" height="138.5"/>
			</g>
			<g class="st51">
				<defs>
					<path id="SVGID_129_" d="M112,261.4l0.2-0.5c0,0-0.1-0.4-0.2-1.1c-0.1-0.6-0.2-1.4-0.4-2.4c-0.3-1.7-0.7-3.9-1.2-6.5
						c-0.2-1-0.4-2-0.7-3.1c-2.6-11.8-7.4-28.5-15-36.9L62.9,215l0,0h0l-3-4.1l-21,9.3l0,0l0,0l-3,6.3l-3.2,6.7l4.5,10l7.4,16.4
						l4.1,9.1l3.9,8.7l1.6,3.5L69.7,315l0,0l0,0l6.6-4.5l4.9-3.3v0v-13.9l25.6-14.7L112,261.4L112,261.4z"/>
				</defs>
				<clipPath id="SVGID_130_">
					<use xlink:href="#SVGID_129_"  style="overflow:visible;"/>
				</clipPath>
				
					<linearGradient id="SVGID_131_" gradientUnits="userSpaceOnUse" x1="-0.2105" y1="3070.9111" x2="0.7895" y2="3070.9111" gradientTransform="matrix(0 -104.0875 -104.0875 0 319715.875 293.0741)">
					<stop  offset="0" style="stop-color:#6F88F9"/>
					<stop  offset="1" style="stop-color:#4C37D8"/>
				</linearGradient>
				<rect x="32.6" y="210.9" class="st53" width="79.6" height="104.1"/>
			</g>
			<g class="st51">
				<defs>
					<path id="SVGID_132_" d="M8.6,222.7l-1.4,5.1c2.5,3.1,5.1,4.7,5.1,4.7l3.3-3.7c0,0,1.4-2.9-1.2-6.3
						C14.4,222.5,9.9,221.9,8.6,222.7"/>
				</defs>
				<clipPath id="SVGID_133_">
					<use xlink:href="#SVGID_132_"  style="overflow:visible;"/>
				</clipPath>
				
					<linearGradient id="SVGID_134_" gradientUnits="userSpaceOnUse" x1="-11.3983" y1="3097.7639" x2="-10.3983" y2="3097.7639" gradientTransform="matrix(0 -10.1627 -10.1627 0 31493.7813 116.6014)">
					<stop  offset="0" style="stop-color:#6F88F9"/>
					<stop  offset="1" style="stop-color:#4C37D8"/>
				</linearGradient>
				<rect x="7.3" y="221.9" class="st54" width="9.8" height="10.5"/>
			</g>
			<g class="st51">
				<defs>
					<path id="SVGID_135_" d="M109.6,194.6l1.5-5.8l2.4-7.1l-2.5-2.8l-8.1,2l-0.1,1.7c-1.7,0.6-5.3,2.1-5.3,2.1l-0.3,7.7v0.3
						l4.3,1.2l2,2.2L109.6,194.6z"/>
				</defs>
				<clipPath id="SVGID_136_">
					<use xlink:href="#SVGID_135_"  style="overflow:visible;"/>
				</clipPath>
				
					<linearGradient id="SVGID_137_" gradientUnits="userSpaceOnUse" x1="-6.2747" y1="3085.4939" x2="-5.2747" y2="3085.4939" gradientTransform="matrix(0 -17.3204 -17.3204 0 53547.332 87.5528)">
					<stop  offset="0" style="stop-color:#6F88F9"/>
					<stop  offset="1" style="stop-color:#4C37D8"/>
				</linearGradient>
				<rect x="97.3" y="178.9" class="st55" width="16.2" height="17.3"/>
			</g>
			<g class="st51">
				<defs>
					<path id="SVGID_138_" d="M246.9,124.9c0,0-6.5-0.3-13.4,2.6v12.2l6.8,4.4l6.6-4.4l3-12.2L246.9,124.9z"/>
				</defs>
				<clipPath id="SVGID_139_">
					<use xlink:href="#SVGID_138_"  style="overflow:visible;"/>
				</clipPath>
				
					<linearGradient id="SVGID_140_" gradientUnits="userSpaceOnUse" x1="-5.5705" y1="3083.8003" x2="-4.5705" y2="3083.8003" gradientTransform="matrix(0 -19.1767 -19.1767 0 59378.9531 37.2043)">
					<stop  offset="0" style="stop-color:#6F88F9"/>
					<stop  offset="1" style="stop-color:#4C37D8"/>
				</linearGradient>
				<rect x="233.5" y="124.5" class="st56" width="16.4" height="19.5"/>
			</g>
			<g class="st51">
				<defs>
					<path id="SVGID_141_" d="M75.8,159l-1.7-1.5c0,0-3.6-0.2-7.5,1.5v6.8l3.8,2.4l3.7-2.4L75.8,159z"/>
				</defs>
				<clipPath id="SVGID_142_">
					<use xlink:href="#SVGID_141_"  style="overflow:visible;"/>
				</clipPath>
				
					<linearGradient id="SVGID_143_" gradientUnits="userSpaceOnUse" x1="-10.8444" y1="3096.4829" x2="-9.8444" y2="3096.4829" gradientTransform="matrix(0 -10.6379 -10.6379 0 33011.3477 52.7944)">
					<stop  offset="0" style="stop-color:#6F88F9"/>
					<stop  offset="1" style="stop-color:#4C37D8"/>
				</linearGradient>
				<rect x="66.6" y="157.3" class="st57" width="9.1" height="10.8"/>
			</g>
			<g class="st51">
				<defs>
					<path id="SVGID_144_" d="M70,325.5v12.2l6.8,4.3l6.6-4.3l3-12.2l-3-2.6C83.4,322.9,76.9,322.6,70,325.5"/>
				</defs>
				<clipPath id="SVGID_145_">
					<use xlink:href="#SVGID_144_"  style="overflow:visible;"/>
				</clipPath>
				
					<linearGradient id="SVGID_146_" gradientUnits="userSpaceOnUse" x1="-5.5705" y1="3083.8003" x2="-4.5705" y2="3083.8003" gradientTransform="matrix(0 -19.1767 -19.1767 0 59215.4492 235.2514)">
					<stop  offset="0" style="stop-color:#6F88F9"/>
					<stop  offset="1" style="stop-color:#4C37D8"/>
				</linearGradient>
				<rect x="70" y="322.6" class="st58" width="16.4" height="19.5"/>
			</g>
			<g class="st51">
				<defs>
					<path id="SVGID_147_" d="M169.7,307l-1.7-1.5c0,0-3.6-0.2-7.5,1.5v6.8l3.8,2.4l3.7-2.4L169.7,307z"/>
				</defs>
				<clipPath id="SVGID_148_">
					<use xlink:href="#SVGID_147_"  style="overflow:visible;"/>
				</clipPath>
				
					<linearGradient id="SVGID_149_" gradientUnits="userSpaceOnUse" x1="-10.8448" y1="3096.4836" x2="-9.8448" y2="3096.4836" gradientTransform="matrix(0 -10.6377 -10.6377 0 33104.457 200.7793)">
					<stop  offset="0" style="stop-color:#6F88F9"/>
					<stop  offset="1" style="stop-color:#4C37D8"/>
				</linearGradient>
				<rect x="160.6" y="305.3" class="st59" width="9.1" height="10.8"/>
			</g>
			<g class="st51">
				<defs>
					<path id="SVGID_150_" d="M160.2,399.7c0,0-8.8,3.8-10.3,6.6l3,10.7c7.9,2.9,14.3,3,14.3,3l2-10.3
						C169.3,409.8,168.6,402.9,160.2,399.7"/>
				</defs>
				<clipPath id="SVGID_151_">
					<use xlink:href="#SVGID_150_"  style="overflow:visible;"/>
				</clipPath>
				
					<linearGradient id="SVGID_152_" gradientUnits="userSpaceOnUse" x1="-5.2041" y1="3082.9194" x2="-4.2042" y2="3082.9194" gradientTransform="matrix(0 -20.309 -20.309 0 62770.4688 314.3453)">
					<stop  offset="0" style="stop-color:#6F88F9"/>
					<stop  offset="1" style="stop-color:#4C37D8"/>
				</linearGradient>
				<rect x="149.9" y="399.7" class="st60" width="19.3" height="20.3"/>
			</g>
			<g class="st51">
				<defs>
					<polygon id="SVGID_153_" points="177.7,203.9 175.5,228.6 189.2,237.1 193.3,233.8 204.1,203.9 197.4,198.7 					"/>
				</defs>
				<clipPath id="SVGID_154_">
					<use xlink:href="#SVGID_153_"  style="overflow:visible;"/>
				</clipPath>
				
					<linearGradient id="SVGID_155_" gradientUnits="userSpaceOnUse" x1="-2.2831" y1="3075.895" x2="-1.2831" y2="3075.895" gradientTransform="matrix(0 -38.3786 -38.3786 0 118238.3281 149.4926)">
					<stop  offset="0" style="stop-color:#6F88F9"/>
					<stop  offset="1" style="stop-color:#4C37D8"/>
				</linearGradient>
				<rect x="175.5" y="198.7" class="st61" width="28.6" height="38.4"/>
			</g>
		</g>
	</g>
</g>
</svg>
